<svg width="528" height="528" viewBox="0 0 528 528" fill="none" xmlns="http://www.w3.org/2000/svg">
<circle cx="264" cy="264" r="264" fill="#17B1A0"/>
<path d="M198.28 345.8C186.28 345.8 175.814 344.333 166.88 341.4C157.947 338.467 151.08 334.333 146.28 329C141.614 323.533 139.28 317.2 139.28 310C139.28 299.067 146.68 293.6 161.48 293.6C162.014 303.733 165.414 311.4 171.68 316.6C178.08 321.8 187.014 324.4 198.48 324.4C207.947 324.4 215.28 322.8 220.48 319.6C225.68 316.267 228.28 311.667 228.28 305.8C228.28 301.933 227.28 298.8 225.28 296.4C223.28 293.867 219.88 291.667 215.08 289.8C210.28 287.8 203.28 285.8 194.08 283.8C181.014 280.733 170.68 277.333 163.08 273.6C155.614 269.867 150.214 265.4 146.88 260.2C143.547 254.867 141.88 248.267 141.88 240.4C141.88 232.8 144.08 226.133 148.48 220.4C153.014 214.667 159.347 210.2 167.48 207C175.747 203.8 185.214 202.2 195.88 202.2C206.147 202.2 215.28 203.6 223.28 206.4C231.414 209.067 237.747 212.867 242.28 217.8C246.947 222.733 249.28 228.4 249.28 234.8C249.28 244.667 242.147 249.8 227.88 250.2C227.08 241 224.147 234.267 219.08 230C214.014 225.733 206.28 223.6 195.88 223.6C186.947 223.6 180.08 225.067 175.28 228C170.48 230.933 168.08 235.067 168.08 240.4C168.08 244.133 169.014 247.267 170.88 249.8C172.747 252.2 175.88 254.333 180.28 256.2C184.68 257.933 190.947 259.733 199.08 261.6C212.814 264.667 223.68 268.133 231.68 272C239.68 275.733 245.48 280.333 249.08 285.8C252.68 291.133 254.48 297.733 254.48 305.6C254.48 313.733 252.147 320.867 247.48 327C242.947 333 236.414 337.667 227.88 341C219.48 344.2 209.614 345.8 198.28 345.8ZM287.149 344C283.549 344 280.416 342.8 277.749 340.4C275.083 338 273.749 335.133 273.749 331.8V216.2C273.749 212.867 275.016 210 277.549 207.6C280.216 205.2 283.416 204 287.149 204H340.949C353.749 204 363.949 207.6 371.549 214.8C379.283 221.867 383.149 231.4 383.149 243.4C383.149 249.133 381.616 254.6 378.549 259.8C375.483 264.867 371.416 268.8 366.349 271.6V272.2C373.283 274.6 378.749 278.533 382.749 284C386.883 289.467 388.949 295.733 388.949 302.8C388.949 310.8 387.083 317.933 383.349 324.2C379.616 330.467 374.416 335.333 367.749 338.8C361.083 342.267 353.483 344 344.949 344H287.149ZM340.549 262.8C344.949 262.8 348.683 261 351.749 257.4C354.949 253.8 356.549 249.467 356.549 244.4C356.549 238.933 355.083 234.6 352.149 231.4C349.349 228.2 345.483 226.6 340.549 226.6H299.749V262.8H340.549ZM344.549 321.4C350.016 321.4 354.349 319.8 357.549 316.6C360.749 313.267 362.349 308.733 362.349 303C362.349 297.4 360.749 293.067 357.549 290C354.483 286.8 350.149 285.2 344.549 285.2H299.749V321.4H344.549Z" fill="#FDFDFD"/>
<path d="M166.88 341.4L166.568 342.35L166.568 342.35L166.88 341.4ZM146.28 329L145.52 329.649L145.528 329.659L145.537 329.669L146.28 329ZM161.48 293.6L162.479 293.547L162.429 292.6H161.48V293.6ZM171.68 316.6L171.042 317.37L171.05 317.376L171.68 316.6ZM220.48 319.6L221.005 320.452L221.012 320.447L221.02 320.442L220.48 319.6ZM225.28 296.4L224.496 297.02L224.504 297.03L224.512 297.04L225.28 296.4ZM215.08 289.8L214.696 290.723L214.707 290.728L214.718 290.732L215.08 289.8ZM194.08 283.8L193.852 284.774L193.86 284.775L193.868 284.777L194.08 283.8ZM163.08 273.6L162.633 274.494L162.64 274.498L163.08 273.6ZM146.88 260.2L146.032 260.73L146.039 260.74L146.88 260.2ZM148.48 220.4L147.696 219.78L147.692 219.785L147.687 219.791L148.48 220.4ZM167.48 207L167.119 206.067L167.114 206.069L167.48 207ZM223.28 206.4L222.95 207.344L222.959 207.347L222.969 207.35L223.28 206.4ZM242.28 217.8L241.544 218.477L241.549 218.482L241.554 218.487L242.28 217.8ZM227.88 250.2L226.884 250.287L226.966 251.226L227.908 251.2L227.88 250.2ZM219.08 230L219.725 229.235L219.725 229.235L219.08 230ZM175.28 228L174.759 227.147L174.759 227.147L175.28 228ZM170.88 249.8L170.075 250.393L170.083 250.404L170.091 250.414L170.88 249.8ZM180.28 256.2L179.89 257.121L179.902 257.126L179.914 257.13L180.28 256.2ZM199.08 261.6L198.857 262.575L198.863 262.576L199.08 261.6ZM231.68 272L231.245 272.9L231.258 272.906L231.68 272ZM249.08 285.8L248.245 286.35L248.252 286.359L249.08 285.8ZM247.48 327L246.685 326.394L246.683 326.397L247.48 327ZM227.88 341L228.236 341.935L228.244 341.931L227.88 341ZM198.28 344.8C186.359 344.8 176.002 343.342 167.192 340.45L166.568 342.35C175.626 345.324 186.202 346.8 198.28 346.8V344.8ZM167.192 340.45C158.375 337.555 151.676 333.5 147.024 328.331L145.537 329.669C150.485 335.166 157.519 339.379 166.568 342.35L167.192 340.45ZM147.041 328.351C142.529 323.065 140.28 316.962 140.28 310H138.28C138.28 317.438 140.698 324.001 145.52 329.649L147.041 328.351ZM140.28 310C140.28 304.783 142.03 301.012 145.425 298.504C148.876 295.955 154.174 294.6 161.48 294.6V292.6C153.987 292.6 148.185 293.979 144.236 296.896C140.231 299.854 138.28 304.284 138.28 310H140.28ZM160.482 293.653C161.026 303.991 164.51 311.949 171.042 317.37L172.319 315.83C166.318 310.851 163.002 303.475 162.479 293.547L160.482 293.653ZM171.05 317.376C177.687 322.768 186.873 325.4 198.48 325.4V323.4C187.155 323.4 178.474 320.832 172.311 315.824L171.05 317.376ZM198.48 325.4C208.039 325.4 215.583 323.788 221.005 320.452L219.956 318.748C214.978 321.812 207.856 323.4 198.48 323.4V325.4ZM221.02 320.442C226.489 316.936 229.28 312.029 229.28 305.8H227.28C227.28 311.305 224.872 315.597 219.941 318.758L221.02 320.442ZM229.28 305.8C229.28 301.757 228.231 298.379 226.049 295.76L224.512 297.04C226.329 299.221 227.28 302.11 227.28 305.8H229.28ZM226.065 295.78C223.908 293.047 220.32 290.764 215.443 288.868L214.718 290.732C219.441 292.569 222.653 294.686 224.496 297.02L226.065 295.78ZM215.465 288.877C210.582 286.842 203.513 284.827 194.293 282.823L193.868 284.777C203.048 286.773 209.979 288.758 214.696 290.723L215.465 288.877ZM194.309 282.826C181.278 279.768 171.026 276.389 163.521 272.702L162.64 274.498C170.335 278.278 180.749 281.698 193.852 284.774L194.309 282.826ZM163.528 272.706C156.167 269.025 150.93 264.664 147.722 259.66L146.039 260.74C149.498 266.136 155.06 270.708 162.633 274.494L163.528 272.706ZM147.728 259.67C144.517 254.531 142.88 248.126 142.88 240.4H140.88C140.88 248.407 142.578 255.202 146.032 260.73L147.728 259.67ZM142.88 240.4C142.88 233.008 145.015 226.558 149.274 221.009L147.687 219.791C143.146 225.709 140.88 232.592 140.88 240.4H142.88ZM149.265 221.02C153.669 215.45 159.845 211.079 167.847 207.931L167.114 206.069C158.849 209.321 152.359 213.883 147.696 219.78L149.265 221.02ZM167.841 207.933C175.972 204.785 185.313 203.2 195.88 203.2V201.2C185.115 201.2 175.522 202.815 167.119 206.067L167.841 207.933ZM195.88 203.2C206.058 203.2 215.076 204.588 222.95 207.344L223.611 205.456C215.485 202.612 206.237 201.2 195.88 201.2V203.2ZM222.969 207.35C230.984 209.978 237.154 213.7 241.544 218.477L243.017 217.123C238.34 212.034 231.844 208.155 223.592 205.45L222.969 207.35ZM241.554 218.487C246.057 223.247 248.28 228.672 248.28 234.8H250.28C250.28 228.128 247.837 222.219 243.007 217.113L241.554 218.487ZM248.28 234.8C248.28 239.457 246.617 242.885 243.346 245.238C240.015 247.636 234.899 249.003 227.852 249.2L227.908 251.2C235.128 250.997 240.713 249.597 244.515 246.862C248.377 244.082 250.28 240.009 250.28 234.8H248.28ZM228.877 250.113C228.063 240.755 225.063 233.73 219.725 229.235L218.436 230.765C223.232 234.803 226.098 241.245 226.884 250.287L228.877 250.113ZM219.725 229.235C214.4 224.751 206.389 222.6 195.88 222.6V224.6C206.172 224.6 213.628 226.716 218.436 230.765L219.725 229.235ZM195.88 222.6C186.862 222.6 179.783 224.077 174.759 227.147L175.802 228.853C180.378 226.057 187.033 224.6 195.88 224.6V222.6ZM174.759 227.147C169.682 230.25 167.08 234.696 167.08 240.4H169.08C169.08 235.438 171.279 231.617 175.802 228.853L174.759 227.147ZM167.08 240.4C167.08 244.306 168.06 247.658 170.075 250.393L171.686 249.207C169.968 246.876 169.08 243.961 169.08 240.4H167.08ZM170.091 250.414C172.106 253.004 175.414 255.222 179.89 257.121L180.671 255.279C176.347 253.445 173.388 251.396 171.67 249.186L170.091 250.414ZM179.914 257.13C184.383 258.891 190.706 260.704 198.857 262.575L199.304 260.625C191.189 258.763 184.978 256.976 180.647 255.27L179.914 257.13ZM198.863 262.576C212.559 265.634 223.343 269.081 231.245 272.9L232.116 271.1C224.018 267.186 213.069 263.699 199.298 260.624L198.863 262.576ZM231.258 272.906C239.147 276.588 244.777 281.083 248.245 286.35L249.916 285.25C246.184 279.584 240.214 274.879 232.103 271.094L231.258 272.906ZM248.252 286.359C251.717 291.494 253.48 297.888 253.48 305.6H255.48C255.48 297.579 253.644 290.773 249.909 285.241L248.252 286.359ZM253.48 305.6C253.48 313.528 251.211 320.445 246.685 326.394L248.276 327.606C253.083 321.288 255.48 313.939 255.48 305.6H253.48ZM246.683 326.397C242.283 332.22 235.915 336.788 227.517 340.069L228.244 341.931C236.912 338.546 243.611 333.78 248.278 327.603L246.683 326.397ZM227.524 340.066C219.264 343.213 209.523 344.8 198.28 344.8V346.8C209.705 346.8 219.697 345.187 228.236 341.934L227.524 340.066ZM277.749 340.4L277.08 341.143L277.08 341.143L277.749 340.4ZM277.549 207.6L276.88 206.857L276.871 206.865L276.861 206.874L277.549 207.6ZM371.549 214.8L370.861 215.526L370.868 215.532L370.875 215.538L371.549 214.8ZM378.549 259.8L379.405 260.318L379.411 260.308L378.549 259.8ZM366.349 271.6L365.866 270.725L365.349 271.01V271.6H366.349ZM366.349 272.2H365.349V272.912L366.022 273.145L366.349 272.2ZM382.749 284L381.942 284.591L381.947 284.597L381.952 284.603L382.749 284ZM383.349 324.2L382.49 323.688L383.349 324.2ZM367.749 338.8L368.211 339.687L367.749 338.8ZM351.749 257.4L351.002 256.736L350.995 256.744L350.988 256.752L351.749 257.4ZM352.149 231.4L351.397 232.059L351.404 232.067L351.412 232.076L352.149 231.4ZM299.749 226.6V225.6H298.749V226.6H299.749ZM299.749 262.8H298.749V263.8H299.749V262.8ZM357.549 316.6L358.256 317.307L358.264 317.3L358.271 317.293L357.549 316.6ZM357.549 290L356.827 290.692L356.842 290.707L356.857 290.722L357.549 290ZM299.749 285.2V284.2H298.749V285.2H299.749ZM299.749 321.4H298.749V322.4H299.749V321.4ZM287.149 343C283.795 343 280.901 341.891 278.418 339.657L277.08 341.143C279.931 343.709 283.303 345 287.149 345V343ZM278.418 339.657C275.944 337.43 274.749 334.826 274.749 331.8H272.749C272.749 335.44 274.221 338.57 277.08 341.143L278.418 339.657ZM274.749 331.8V216.2H272.749V331.8H274.749ZM274.749 216.2C274.749 213.155 275.892 210.547 278.237 208.326L276.861 206.874C274.139 209.453 272.749 212.578 272.749 216.2H274.749ZM278.218 208.343C280.693 206.116 283.652 205 287.149 205V203C283.18 203 279.739 204.284 276.88 206.857L278.218 208.343ZM287.149 205H340.949V203H287.149V205ZM340.949 205C353.553 205 363.487 208.539 370.861 215.526L372.237 214.074C364.412 206.661 353.945 203 340.949 203V205ZM370.875 215.538C378.37 222.387 382.149 231.636 382.149 243.4H384.149C384.149 231.164 380.196 221.346 372.224 214.062L370.875 215.538ZM382.149 243.4C382.149 248.945 380.669 254.237 377.688 259.292L379.411 260.308C382.563 254.963 384.149 249.322 384.149 243.4H382.149ZM377.694 259.282C374.715 264.203 370.775 268.011 365.866 270.725L366.833 272.475C372.056 269.589 376.25 265.53 379.405 260.318L377.694 259.282ZM365.349 271.6V272.2H367.349V271.6H365.349ZM366.022 273.145C372.78 275.484 378.072 279.302 381.942 284.591L383.556 283.409C379.426 277.765 373.785 273.716 366.676 271.255L366.022 273.145ZM381.952 284.603C385.949 289.89 387.949 295.944 387.949 302.8H389.949C389.949 295.523 387.816 289.043 383.547 283.397L381.952 284.603ZM387.949 302.8C387.949 310.638 386.122 317.591 382.49 323.688L384.208 324.712C388.043 318.276 389.949 310.962 389.949 302.8H387.949ZM382.49 323.688C378.855 329.79 373.795 334.529 367.288 337.913L368.211 339.687C375.037 336.138 380.377 331.143 384.208 324.712L382.49 323.688ZM367.288 337.913C360.782 341.296 353.344 343 344.949 343V345C353.621 345 361.383 343.237 368.211 339.687L367.288 337.913ZM344.949 343H287.149V345H344.949V343ZM340.549 263.8C345.266 263.8 349.27 261.853 352.51 258.048L350.988 256.752C348.095 260.147 344.632 261.8 340.549 261.8V263.8ZM352.497 258.064C355.868 254.271 357.549 249.698 357.549 244.4H355.549C355.549 249.236 354.03 253.329 351.002 256.736L352.497 258.064ZM357.549 244.4C357.549 238.751 356.029 234.153 352.886 230.724L351.412 232.076C354.136 235.047 355.549 239.116 355.549 244.4H357.549ZM352.902 230.741C349.881 227.289 345.72 225.6 340.549 225.6V227.6C345.245 227.6 348.818 229.111 351.397 232.059L352.902 230.741ZM340.549 225.6H299.749V227.6H340.549V225.6ZM298.749 226.6V262.8H300.749V226.6H298.749ZM299.749 263.8H340.549V261.8H299.749V263.8ZM344.549 322.4C350.222 322.4 354.831 320.733 358.256 317.307L356.842 315.893C353.868 318.867 349.81 320.4 344.549 320.4V322.4ZM358.271 317.293C361.69 313.731 363.349 308.926 363.349 303H361.349C361.349 308.541 359.808 312.803 356.828 315.907L358.271 317.293ZM363.349 303C363.349 297.204 361.687 292.58 358.241 289.278L356.857 290.722C359.812 293.553 361.349 297.596 361.349 303H363.349ZM358.271 289.308C354.969 285.862 350.346 284.2 344.549 284.2V286.2C349.953 286.2 353.996 287.738 356.827 290.692L358.271 289.308ZM344.549 284.2H299.749V286.2H344.549V284.2ZM298.749 285.2V321.4H300.749V285.2H298.749ZM299.749 322.4H344.549V320.4H299.749V322.4Z" fill="white"/>
</svg>
