<svg width="183" height="36" viewBox="0 0 183 36" fill="currentColor" xmlns="http://www.w3.org/2000/svg">
<path d="M37.624 14.0265V14.5265H38.124V14.0265H37.624ZM23.8674 14.0265L23.3681 13.9995L23.3396 14.5265H23.8674V14.0265ZM23.8307 13.0521L24.3266 12.9881L24.3266 12.9881L23.8307 13.0521ZM23.8112 11.8686L24.309 11.9162L24.309 11.9162L23.8112 11.8686ZM24.1881 7.93181L24.6858 7.97945L24.6858 7.97945L24.1881 7.93181ZM20.2866 3.96283L20.4292 4.44207L20.4292 4.44207L20.2866 3.96283ZM20.0969 4.02336L20.2578 4.49676L20.2578 4.49676L20.0969 4.02336ZM15.7744 4.58186L15.5041 4.16126L14.214 4.99053L15.7449 5.08099L15.7744 4.58186ZM23.3528 16.0265V15.5265H23.0387L22.9024 15.8094L23.3528 16.0265ZM9.33276 16.0265L9.79398 15.8334L9.66549 15.5265H9.33276V16.0265ZM9.17435 16.0265H8.67435V16.5265H9.17435V16.0265ZM9.17435 15.591H9.67435V15.5151L9.65186 15.4427L9.17435 15.591ZM9.04222 13.2457L8.5508 13.1535L8.5508 13.1535L9.04222 13.2457ZM9.11345 12.6951L9.61216 12.731L9.70445 11.4476L8.76981 12.3319L9.11345 12.6951ZM6.86447 14.823L6.52083 14.4598L6.36447 14.6078L6.36447 14.823L6.86447 14.823ZM6.86447 19.9714L6.36447 19.9714L6.36447 21.3823L7.25289 20.2863L6.86447 19.9714ZM9.00649 17.3288L9.32134 16.9404L8.93291 16.6255L8.61807 17.0139L9.00649 17.3288ZM10.5602 18.5882L10.9486 18.903L11.2635 18.5146L10.875 18.1997L10.5602 18.5882ZM8.22719 21.4664L7.83877 21.1516L7.17829 21.9664H8.22719V21.4664ZM70.1622 21.4664V21.9664H71.2111L70.5506 21.1516L70.1622 21.4664ZM67.8292 18.5882L67.5143 18.1997L67.1259 18.5146L67.4407 18.903L67.8292 18.5882ZM69.3829 17.3288L69.7713 17.0139L69.4565 16.6255L69.068 16.9404L69.3829 17.3288ZM71.5249 19.9714L71.1365 20.2863L72.0249 21.3823V19.9714H71.5249ZM71.5249 14.823H72.0249V14.6078L71.8685 14.4598L71.5249 14.823ZM69.2759 12.6952L69.6196 12.332L68.6849 11.4476L68.7772 12.731L69.2759 12.6952ZM69.3471 13.2457L68.8557 13.338L68.8557 13.338L69.3471 13.2457ZM69.215 15.5909L68.7375 15.4426L68.715 15.515V15.5909H69.215ZM69.215 16.0265V16.5265H69.715V16.0265H69.215ZM69.0566 16.0265V15.5265H68.7239L68.5954 15.8334L69.0566 16.0265ZM55.0366 16.0265L55.487 15.8094L55.3506 15.5265H55.0366V16.0265ZM73.4796 13.131V13.631H74.7982L73.8111 12.7567L73.4796 13.131ZM72.651 13.131L72.3074 13.4942L72.452 13.631H72.651V13.131ZM69.5868 9.68331L69.9183 9.30901L69.2202 8.69072L69.0916 9.61436L69.5868 9.68331ZM69.5193 10.1679L69.0241 10.0989L68.9886 10.354L69.1757 10.5311L69.5193 10.1679ZM65.8862 3.96283L65.7336 3.48669L65.7336 3.48669L65.8862 3.96283ZM69.8215 7.97118L69.3238 7.92301L69.1756 9.45462L70.1958 8.30269L69.8215 7.97118ZM65.3036 4.13565L64.9665 4.5049L65.1697 4.69047L65.4353 4.618L65.3036 4.13565ZM39.1947 9.80753L38.7126 9.94024L39.1947 11.6913L39.6768 9.94024L39.1947 9.80753ZM13.0858 4.13565L12.9541 4.61801L13.2196 4.69048L13.4229 4.5049L13.0858 4.13565ZM12.5032 3.96283L12.6558 3.48669L12.6558 3.48669L12.5032 3.96283ZM8.56787 7.97118L8.19357 8.30269L9.21378 9.45462L9.06555 7.92302L8.56787 7.97118ZM8.19482 7.54997L8.56913 7.21847L8.23762 6.84416L7.86332 7.17567L8.19482 7.54997ZM1.60942 13.3824L1.27792 13.0081L1.27792 13.0081L1.60942 13.3824ZM1.27243 13.6808L0.940925 13.3065L0.77243 13.4557V13.6808H1.27243ZM2.51832 28.1398L2.87045 27.7848L2.87045 27.7848L2.51832 28.1398ZM4.48513 29.4908L4.26648 29.9405L4.26648 29.9405L4.48513 29.4908ZM11.4223 29.9063H11.9223V29.4063H11.4223V29.9063ZM16.8733 29.9063V29.4063H16.3733V29.9063H16.8733ZM61.5161 29.9063H62.0161V29.4063H61.5161V29.9063ZM66.9671 29.9063V29.4063H66.4671V29.9063H66.9671ZM73.9042 29.4908L73.6856 29.0411L73.6856 29.0411L73.9042 29.4908ZM75.871 28.1398L75.5189 27.7848L75.5189 27.7848L75.871 28.1398ZM77.1169 13.6808H77.6169V13.4557L77.4484 13.3065L77.1169 13.6808ZM76.7799 13.3824L77.1114 13.0081L77.1114 13.0081L76.7799 13.3824ZM70.1945 7.54997L70.526 7.17567L70.1517 6.84416L69.8202 7.21847L70.1945 7.54997ZM63.5161 29.9063V29.4063H63.0161V29.9063H63.5161ZM64.9671 29.9063H65.4671V29.4063H64.9671V29.9063ZM71.463 27.9063V28.4063H71.963V27.9063H71.463ZM71.463 23.4664H71.963V22.9664H71.463V23.4664ZM6.92643 23.4664V22.9664H6.42643V23.4664H6.92643ZM6.92643 27.9063H6.42643V28.4063H6.92643V27.9063ZM73.463 27.4623H72.963V28.3285L73.713 27.8953L73.463 27.4623ZM74.4625 26.7199L74.1104 26.3649L74.1104 26.3649L74.4625 26.7199ZM73.463 23.4664V22.9664H72.963V23.4664H73.463ZM73.5249 23.4664V23.9664H74.0249V23.4664H73.5249ZM73.5249 15.131V14.631H73.0249V15.131H73.5249ZM75.1169 15.131H75.6169V14.631H75.1169V15.131ZM58.2924 4.02336L58.4533 3.54995L58.4533 3.54994L58.2924 4.02336ZM62.615 4.58186L62.6445 5.08099L64.1754 4.99052L62.8853 4.16126L62.615 4.58186ZM58.1028 3.96283L57.9602 4.44207L57.9602 4.44207L58.1028 3.96283ZM54.2013 7.93181L53.7036 7.97945L53.7036 7.97945L54.2013 7.93181ZM54.5781 11.8686L54.0804 11.9162L54.0804 11.9162L54.5781 11.8686ZM54.5587 13.0521L54.0628 12.9881L54.0628 12.9881L54.5587 13.0521ZM54.522 14.0265V14.5265H55.0498L55.0213 13.9995L54.522 14.0265ZM40.7654 14.0265H40.2654V14.5265H40.7654V14.0265ZM4.92643 23.4664H5.42643V22.9664H4.92643V23.4664ZM4.92643 27.4624L4.67635 27.8953L5.42643 28.3286V27.4624H4.92643ZM4.86447 23.4664H4.36447V23.9664H4.86447V23.4664ZM4.86447 22.4664L4.36447 22.4664V22.4664H4.86447ZM4.86447 15.131L5.36447 15.131L5.36447 14.631H4.86447V15.131ZM3.27243 15.131V14.631H2.77243V15.131H3.27243ZM3.92685 26.7199L4.27898 26.3649L4.27898 26.3649L3.92685 26.7199ZM5.7383 13.131V13.631H5.93735L6.08194 13.4942L5.7383 13.131ZM8.87006 10.1678L9.2137 10.531L9.4008 10.354L9.36528 10.0989L8.87006 10.1678ZM4.90981 13.131L4.57831 12.7567L3.59112 13.631H4.90981V13.131ZM8.80259 9.68331L9.29782 9.61436L9.16921 8.69071L8.47109 9.30901L8.80259 9.68331ZM14.8733 29.9063H15.3733V29.4063H14.8733V29.9063ZM13.4223 29.9063V29.4063H12.9223V29.9063H13.4223ZM27.624 2.5H21.1744V3.5H27.624V2.5ZM38.124 13C38.124 7.20101 33.423 2.5 27.624 2.5V3.5C32.8707 3.5 37.124 7.7533 37.124 13H38.124ZM38.124 14.0265V13H37.124V14.0265H38.124ZM23.8674 14.5265H37.624V13.5265H23.8674V14.5265ZM23.3348 13.1161C23.3734 13.4154 23.3837 13.7107 23.3681 13.9995L24.3666 14.0535C24.3856 13.7042 24.373 13.348 24.3266 12.9881L23.3348 13.1161ZM23.3135 11.8209C23.2722 12.2521 23.2794 12.6865 23.3348 13.1161L24.3266 12.9881C24.2807 12.6326 24.2748 12.2731 24.309 11.9162L23.3135 11.8209ZM23.6904 7.88416L23.3135 11.8209L24.309 11.9162L24.6858 7.97945L23.6904 7.88416ZM20.4292 4.44207C21.3493 4.16833 22.1902 4.48443 22.8037 5.15073C23.4264 5.82707 23.7897 6.84683 23.6904 7.88416L24.6858 7.97945C24.8118 6.66357 24.3573 5.36178 23.5393 4.4734C22.7122 3.57499 21.4898 3.08321 20.144 3.48359L20.4292 4.44207ZM20.2578 4.49676C20.316 4.47701 20.3731 4.45875 20.4292 4.44207L20.144 3.48359C20.0749 3.50416 20.0055 3.52635 19.9361 3.54995L20.2578 4.49676ZM15.7449 5.08099C17.2635 5.17072 18.7964 4.99341 20.2578 4.49676L19.9361 3.54995C18.6083 4.00116 17.2059 4.16557 15.8039 4.08273L15.7449 5.08099ZM21.1744 2.5C19.0866 2.5 17.1398 3.10984 15.5041 4.16126L16.0448 5.00246C17.524 4.0516 19.284 3.5 21.1744 3.5V2.5ZM23.3528 16.5265H37.624V15.5265H23.3528V16.5265ZM18.5729 19.5318C20.8998 19.5318 22.8736 18.1718 23.8032 16.2436L22.9024 15.8094C22.1312 17.409 20.497 18.5318 18.5729 18.5318V19.5318ZM13.8434 19.5318H18.5729V18.5318H13.8434V19.5318ZM8.87155 16.2196C9.67498 18.1387 11.57 19.5318 13.8434 19.5318V18.5318C11.9943 18.5318 10.4501 17.4007 9.79398 15.8334L8.87155 16.2196ZM9.17435 16.5265H9.33276V15.5265H9.17435V16.5265ZM8.67435 15.591V16.0265H9.67435V15.591H8.67435ZM8.5508 13.1535C8.38241 14.0508 8.44619 14.9321 8.69685 15.7392L9.65186 15.4427C9.44846 14.7877 9.39598 14.0715 9.53364 13.338L8.5508 13.1535ZM8.61474 12.6593C8.60283 12.8248 8.58151 12.9899 8.5508 13.1535L9.53364 13.338C9.57136 13.137 9.59754 12.9343 9.61216 12.731L8.61474 12.6593ZM7.20811 15.1862L9.45709 13.0583L8.76981 12.3319L6.52083 14.4598L7.20811 15.1862ZM7.36447 19.9714L7.36447 14.823L6.36447 14.823L6.36447 19.9714L7.36447 19.9714ZM8.61807 17.0139L6.47604 19.6566L7.25289 20.2863L9.39492 17.6436L8.61807 17.0139ZM10.875 18.1997L9.32134 16.9404L8.69165 17.7172L10.2454 18.9766L10.875 18.1997ZM8.61562 21.7813L10.9486 18.903L10.1718 18.2733L7.83877 21.1516L8.61562 21.7813ZM38.7654 20.9664H8.22719V21.9664H38.7654V20.9664ZM39.624 20.9664H38.7654V21.9664H39.624V20.9664ZM70.1622 20.9664H39.624V21.9664H70.1622V20.9664ZM67.4407 18.903L69.7737 21.7813L70.5506 21.1516L68.2176 18.2733L67.4407 18.903ZM69.068 16.9404L67.5143 18.1997L68.144 18.9766L69.6977 17.7172L69.068 16.9404ZM71.9133 19.6566L69.7713 17.0139L68.9944 17.6436L71.1365 20.2863L71.9133 19.6566ZM71.0249 14.823V19.9714H72.0249V14.823H71.0249ZM68.9323 13.0584L71.1813 15.1862L71.8685 14.4598L69.6196 12.332L68.9323 13.0584ZM69.8386 13.1535C69.8079 12.9899 69.7865 12.8249 69.7746 12.6593L68.7772 12.731C68.7918 12.9344 68.818 13.137 68.8557 13.338L69.8386 13.1535ZM69.6926 15.7391C69.9432 14.932 70.0069 14.0508 69.8386 13.1535L68.8557 13.338C68.9934 14.0715 68.9409 14.7876 68.7375 15.4426L69.6926 15.7391ZM69.715 16.0265V15.5909H68.715V16.0265H69.715ZM69.0566 16.5265H69.215V15.5265H69.0566V16.5265ZM64.5459 19.5318C66.8194 19.5318 68.7144 18.1387 69.5178 16.2196L68.5954 15.8334C67.9393 17.4007 66.3951 18.5318 64.5459 18.5318V19.5318ZM59.8164 19.5318H64.5459V18.5318H59.8164V19.5318ZM54.5862 16.2436C55.5158 18.1718 57.4895 19.5318 59.8164 19.5318V18.5318C57.8923 18.5318 56.2581 17.409 55.487 15.8094L54.5862 16.2436ZM40.7654 16.5265H55.0366V15.5265H40.7654V16.5265ZM39.624 16.5265H40.7654V15.5265H39.624V16.5265ZM38.7654 16.5265H39.624V15.5265H38.7654V16.5265ZM37.624 16.5265H38.7654V15.5265H37.624V16.5265ZM73.4796 12.631H72.651V13.631H73.4796V12.631ZM69.2553 10.0576L73.148 13.5053L73.8111 12.7567L69.9183 9.30901L69.2553 10.0576ZM70.0145 10.2368L70.082 9.75227L69.0916 9.61436L69.0241 10.0989L70.0145 10.2368ZM72.9947 12.7678L69.863 9.80466L69.1757 10.5311L72.3074 13.4942L72.9947 12.7678ZM66.0388 4.43896C66.972 4.13985 67.8172 4.45455 68.4337 5.13053C69.061 5.81843 69.4263 6.86386 69.3238 7.92301L70.3192 8.01935C70.4482 6.6866 69.9957 5.35926 69.1725 4.45667C68.3385 3.54215 67.1002 3.04862 65.7336 3.48669L66.0388 4.43896ZM65.4353 4.618C65.6377 4.56275 65.839 4.50303 66.0388 4.43896L65.7336 3.48669C65.5475 3.54633 65.3602 3.6019 65.172 3.65329L65.4353 4.618ZM57.215 1.5C60.2018 1.5 62.9217 2.63799 64.9665 4.5049L65.6407 3.76639C63.4189 1.73786 60.4609 0.5 57.215 0.5V1.5ZM50.7654 1.5H57.215V0.5H50.7654V1.5ZM39.6768 9.94024C41.0165 5.07385 45.4742 1.5 50.7654 1.5V0.5C45.0126 0.5 40.1687 4.38572 38.7126 9.67482L39.6768 9.94024ZM27.624 1.5C32.9152 1.5 37.3729 5.07385 38.7126 9.94024L39.6768 9.67482C38.2207 4.38572 33.3768 0.5 27.624 0.5V1.5ZM21.1744 1.5H27.624V0.5H21.1744V1.5ZM13.4229 4.5049C15.4677 2.63799 18.1876 1.5 21.1744 1.5V0.5C17.9284 0.5 14.9705 1.73786 12.7486 3.7664L13.4229 4.5049ZM12.3505 4.43896C12.5504 4.50303 12.7517 4.56276 12.9541 4.61801L13.2174 3.65329C13.0291 3.60191 12.8419 3.54634 12.6558 3.48669L12.3505 4.43896ZM9.06555 7.92302C8.96304 6.86386 9.32832 5.81844 9.95571 5.13053C10.5722 4.45455 11.4174 4.13985 12.3505 4.43896L12.6558 3.48669C11.2891 3.04862 10.0509 3.54215 9.21685 4.45667C8.39367 5.35926 7.94121 6.6866 8.0702 8.01935L9.06555 7.92302ZM7.82052 7.88148L8.19357 8.30269L8.94218 7.63968L8.56913 7.21847L7.82052 7.88148ZM1.94093 13.7567L8.52633 7.92428L7.86332 7.17567L1.27792 13.0081L1.94093 13.7567ZM1.60394 14.0551L1.94093 13.7567L1.27792 13.0081L0.940925 13.3065L1.60394 14.0551ZM1.77243 14.131V13.6808H0.77243V14.131H1.77243ZM1.77243 25.3807V14.131H0.77243V25.3807H1.77243ZM2.87045 27.7848C2.27562 27.1947 1.77243 26.3935 1.77243 25.3807H0.77243C0.77243 26.7514 1.45868 27.7929 2.16619 28.4948L2.87045 27.7848ZM4.70378 29.0411C4.1798 28.7863 3.46288 28.3725 2.87045 27.7848L2.16619 28.4948C2.86823 29.1912 3.6939 29.662 4.26648 29.9405L4.70378 29.0411ZM6.4789 29.4063C5.89564 29.4063 5.27727 29.32 4.70378 29.0411L4.26648 29.9405C5.021 30.3074 5.80335 30.4063 6.4789 30.4063V29.4063ZM11.4223 29.4063H6.4789V30.4063H11.4223V29.4063ZM11.9223 32.3328V29.9063H10.9223V32.3328H11.9223ZM14.1478 34.5583C12.9187 34.5583 11.9223 33.5619 11.9223 32.3328H10.9223C10.9223 34.1142 12.3664 35.5583 14.1478 35.5583V34.5583ZM16.3733 32.3328C16.3733 33.5619 15.3769 34.5583 14.1478 34.5583V35.5583C15.9292 35.5583 17.3733 34.1142 17.3733 32.3328H16.3733ZM16.3733 29.9063V32.3328H17.3733V29.9063H16.3733ZM38.7654 29.4063H16.8733V30.4063H38.7654V29.4063ZM39.624 29.4063H38.7654V30.4063H39.624V29.4063ZM61.5161 29.4063H39.624V30.4063H61.5161V29.4063ZM62.0161 32.3328V29.9063H61.0161V32.3328H62.0161ZM64.2416 34.5583C63.0125 34.5583 62.0161 33.5619 62.0161 32.3328H61.0161C61.0161 34.1142 62.4602 35.5583 64.2416 35.5583V34.5583ZM66.4671 32.3328C66.4671 33.5619 65.4707 34.5583 64.2416 34.5583V35.5583C66.023 35.5583 67.4671 34.1142 67.4671 32.3328H66.4671ZM66.4671 29.9063V32.3328H67.4671V29.9063H66.4671ZM71.9105 29.4063H66.9671V30.4063H71.9105V29.4063ZM73.6856 29.0411C73.1121 29.32 72.4937 29.4063 71.9105 29.4063V30.4063C72.586 30.4063 73.3684 30.3074 74.1229 29.9405L73.6856 29.0411ZM75.5189 27.7848C74.9265 28.3725 74.2096 28.7863 73.6856 29.0411L74.1229 29.9405C74.6955 29.662 75.5211 29.1912 76.2232 28.4948L75.5189 27.7848ZM76.6169 25.3807C76.6169 26.3935 76.1137 27.1947 75.5189 27.7848L76.2232 28.4948C76.9307 27.7929 77.6169 26.7514 77.6169 25.3807H76.6169ZM76.6169 14.131V25.3807H77.6169V14.131H76.6169ZM76.6169 13.6808V14.131H77.6169V13.6808H76.6169ZM76.4484 13.7567L76.7854 14.0551L77.4484 13.3065L77.1114 13.0081L76.4484 13.7567ZM69.863 7.92428L76.4484 13.7567L77.1114 13.0081L70.526 7.17567L69.863 7.92428ZM70.1958 8.30269L70.5688 7.88148L69.8202 7.21847L69.4472 7.63968L70.1958 8.30269ZM63.5161 30.4063H64.9671V29.4063H63.5161V30.4063ZM64.0161 32.3328V29.9063H63.0161V32.3328H64.0161ZM64.2416 32.5583C64.1171 32.5583 64.0161 32.4573 64.0161 32.3328H63.0161C63.0161 33.0096 63.5648 33.5583 64.2416 33.5583V32.5583ZM64.4671 32.3328C64.4671 32.4573 64.3661 32.5583 64.2416 32.5583V33.5583C64.9184 33.5583 65.4671 33.0096 65.4671 32.3328H64.4671ZM64.4671 29.9063V32.3328H65.4671V29.9063H64.4671ZM39.624 27.4063H38.7654V28.4063H39.624V27.4063ZM71.463 27.4063H39.624V28.4063H71.463V27.4063ZM70.963 23.4664V27.9063H71.963V23.4664H70.963ZM39.624 23.9664H71.463V22.9664H39.624V23.9664ZM38.7654 23.9664H39.624V22.9664H38.7654V23.9664ZM6.92643 23.9664H38.7654V22.9664H6.92643V23.9664ZM7.42643 27.9063V23.4664H6.42643V27.9063H7.42643ZM38.7654 27.4063H6.92643V28.4063H38.7654V27.4063ZM73.713 27.8953C74.0791 27.6839 74.4766 27.4102 74.8146 27.0749L74.1104 26.3649C73.8527 26.6206 73.5325 26.8448 73.2129 27.0294L73.713 27.8953ZM72.963 23.4664V27.4623H73.963V23.4664H72.963ZM73.5249 22.9664H73.463V23.9664H73.5249V22.9664ZM73.0249 22.4664V23.4664H74.0249V22.4664H73.0249ZM73.0249 15.131V22.4664H74.0249V15.131H73.0249ZM75.1169 14.631H73.5249V15.631H75.1169V14.631ZM75.6169 25.3807V15.131H74.6169V25.3807H75.6169ZM74.8146 27.0749C75.2964 26.597 75.6169 26.0359 75.6169 25.3807H74.6169C74.6169 25.6809 74.4765 26.0017 74.1104 26.3649L74.8146 27.0749ZM58.1315 4.49676C59.593 4.99341 61.1259 5.17072 62.6445 5.08099L62.5855 4.08273C61.1835 4.16557 59.781 4.00116 58.4533 3.54995L58.1315 4.49676ZM57.9602 4.44207C58.0162 4.45875 58.0734 4.47701 58.1315 4.49677L58.4533 3.54994C58.3839 3.52635 58.3145 3.50416 58.2453 3.48359L57.9602 4.44207ZM54.699 7.88416C54.5997 6.84683 54.963 5.82707 55.5857 5.15073C56.1991 4.48443 57.0401 4.16833 57.9602 4.44207L58.2453 3.48359C56.8996 3.08321 55.6772 3.57499 54.85 4.4734C54.0321 5.36178 53.5776 6.66357 53.7036 7.97945L54.699 7.88416ZM55.0758 11.8209L54.699 7.88416L53.7036 7.97945L54.0804 11.9162L55.0758 11.8209ZM55.0546 13.1161C55.11 12.6865 55.1171 12.2521 55.0758 11.8209L54.0804 11.9162C54.1146 12.2731 54.1086 12.6326 54.0628 12.9881L55.0546 13.1161ZM55.0213 13.9995C55.0056 13.7107 55.0159 13.4154 55.0546 13.1161L54.0628 12.9881C54.0163 13.348 54.0038 13.7042 54.0227 14.0535L55.0213 13.9995ZM40.7654 14.5265H54.522V13.5265H40.7654V14.5265ZM40.2654 13V14.0265H41.2654V13H40.2654ZM50.7654 2.5C44.9664 2.5 40.2654 7.20101 40.2654 13H41.2654C41.2654 7.7533 45.5187 3.5 50.7654 3.5V2.5ZM57.215 2.5H50.7654V3.5H57.215V2.5ZM62.8853 4.16126C61.2496 3.10983 59.3028 2.5 57.215 2.5V3.5C59.1054 3.5 60.8654 4.0516 62.3446 5.00246L62.8853 4.16126ZM4.42643 23.4664V27.4624H5.42643V23.4664H4.42643ZM4.86447 23.9664H4.92643V22.9664H4.86447V23.9664ZM4.36447 22.4664V23.4664H5.36447V22.4664H4.36447ZM4.36447 15.131L4.36447 22.4664L5.36447 22.4664L5.36447 15.131L4.36447 15.131ZM3.27243 15.631H4.86447V14.631H3.27243V15.631ZM3.77243 25.3807V15.131H2.77243V25.3807H3.77243ZM4.27898 26.3649C3.91282 26.0017 3.77243 25.6809 3.77243 25.3807H2.77243C2.77243 26.0359 3.09301 26.597 3.57472 27.0749L4.27898 26.3649ZM5.17651 27.0294C4.8569 26.8448 4.53667 26.6206 4.27898 26.3649L3.57472 27.0749C3.91279 27.4102 4.31028 27.6839 4.67635 27.8953L5.17651 27.0294ZM6.08194 13.4942L9.2137 10.531L8.52641 9.80463L5.39466 12.7678L6.08194 13.4942ZM4.90981 13.631H5.7383V12.631H4.90981V13.631ZM8.47109 9.30901L4.57831 12.7567L5.24132 13.5053L9.1341 10.0576L8.47109 9.30901ZM9.36528 10.0989L9.29782 9.61436L8.30737 9.75226L8.37483 10.2368L9.36528 10.0989ZM14.8733 29.4063H13.4223V30.4063H14.8733V29.4063ZM15.3733 32.3328V29.9063H14.3733V32.3328H15.3733ZM14.1478 33.5583C14.8246 33.5583 15.3733 33.0096 15.3733 32.3328H14.3733C14.3733 32.4573 14.2723 32.5583 14.1478 32.5583V33.5583ZM12.9223 32.3328C12.9223 33.0096 13.471 33.5583 14.1478 33.5583V32.5583C14.0233 32.5583 13.9223 32.4573 13.9223 32.3328H12.9223ZM12.9223 29.9063V32.3328H13.9223V29.9063H12.9223Z" fill="currentColor"/>
<path d="M87.624 24.216C86.016 24.216 84.744 23.94 83.808 23.388C82.884 22.824 82.218 22.146 81.81 21.354L83.448 20.112C84.204 21.648 85.62 22.416 87.696 22.416C88.524 22.416 89.226 22.266 89.802 21.966C90.39 21.666 90.684 21.186 90.684 20.526C90.684 20.034 90.516 19.65 90.18 19.374C89.856 19.098 89.352 18.852 88.668 18.636C88.044 18.444 87.654 18.33 87.498 18.294C86.466 17.994 85.722 17.76 85.266 17.592C84.114 17.16 83.352 16.662 82.98 16.098C82.608 15.534 82.422 14.946 82.422 14.334C82.422 13.83 82.578 13.29 82.89 12.714C83.214 12.126 83.718 11.628 84.402 11.22C85.098 10.8 85.968 10.59 87.012 10.59C88.176 10.59 89.148 10.746 89.928 11.058C90.708 11.37 91.464 11.898 92.196 12.642L90.378 13.848C89.646 12.9 88.578 12.426 87.174 12.426C86.454 12.426 85.896 12.534 85.5 12.75C85.116 12.966 84.858 13.206 84.726 13.47C84.606 13.734 84.546 13.968 84.546 14.172C84.546 14.604 84.714 14.952 85.05 15.216C85.386 15.48 85.884 15.72 86.544 15.936C86.604 15.96 87.066 16.098 87.93 16.35C88.47 16.494 89.028 16.656 89.604 16.836C90.864 17.256 91.704 17.79 92.124 18.438C92.556 19.086 92.772 19.71 92.772 20.31C92.772 20.958 92.616 21.576 92.304 22.164C92.004 22.752 91.47 23.244 90.702 23.64C89.946 24.024 88.92 24.216 87.624 24.216ZM103.883 17.124C104.543 17.328 105.089 17.682 105.521 18.186C105.953 18.69 106.169 19.344 106.169 20.148C106.169 22.716 104.705 24 101.777 24H94.5952V10.806H101.111C102.623 10.806 103.781 11.064 104.585 11.58C105.401 12.084 105.809 12.966 105.809 14.226C105.809 14.802 105.653 15.378 105.341 15.954C105.029 16.518 104.543 16.908 103.883 17.124ZM101.111 12.552C100.859 12.54 99.3412 12.534 96.5572 12.534V16.296H101.111C102.155 16.296 102.839 16.128 103.163 15.792C103.499 15.456 103.667 15 103.667 14.424C103.667 13.896 103.541 13.5 103.289 13.236C103.037 12.96 102.737 12.786 102.389 12.714C102.041 12.63 101.615 12.576 101.111 12.552ZM100.787 22.272C101.423 22.272 101.957 22.236 102.389 22.164C102.833 22.092 103.211 21.9 103.523 21.588C103.847 21.276 104.009 20.796 104.009 20.148C104.009 19.5 103.853 19.02 103.541 18.708C103.229 18.396 102.875 18.204 102.479 18.132C102.083 18.06 101.627 18.024 101.111 18.024H96.5572V22.272H100.787ZM117.19 10.806C119.302 10.806 120.79 11.454 121.654 12.75C122.518 14.046 122.95 15.6 122.95 17.412C122.95 19.224 122.518 20.778 121.654 22.074C120.79 23.358 119.302 24 117.19 24H111.304V10.806H117.19ZM116.65 22.272C117.43 22.272 118.12 22.158 118.72 21.93C119.32 21.69 119.818 21.216 120.214 20.508C120.622 19.788 120.826 18.756 120.826 17.412C120.826 16.068 120.622 15.036 120.214 14.316C119.818 13.596 119.32 13.122 118.72 12.894C118.12 12.654 117.43 12.534 116.65 12.534H113.266V22.272H116.65ZM126.172 19.77C126.256 20.586 126.514 21.258 126.946 21.786C127.378 22.314 128.002 22.578 128.818 22.578C129.442 22.578 129.928 22.452 130.276 22.2C130.624 21.948 130.936 21.516 131.212 20.904L133.012 21.48C132.712 22.284 132.22 22.944 131.536 23.46C130.852 23.976 129.946 24.234 128.818 24.234C127.654 24.234 126.736 23.964 126.064 23.424C125.392 22.872 124.924 22.224 124.66 21.48C124.408 20.724 124.282 19.992 124.282 19.284C124.282 18.576 124.408 17.85 124.66 17.106C124.924 16.35 125.392 15.702 126.064 15.162C126.736 14.61 127.654 14.334 128.818 14.334C129.982 14.334 130.9 14.61 131.572 15.162C132.256 15.702 132.724 16.35 132.976 17.106C133.24 17.85 133.372 18.576 133.372 19.284C133.372 19.488 133.366 19.65 133.354 19.77H126.172ZM128.818 15.99C128.098 15.99 127.522 16.2 127.09 16.62C126.67 17.04 126.394 17.586 126.262 18.258H131.392C131.26 17.586 130.978 17.04 130.546 16.62C130.126 16.2 129.55 15.99 128.818 15.99ZM138.407 24.216C137.315 24.216 136.409 24.012 135.689 23.604C134.969 23.196 134.459 22.626 134.159 21.894L135.887 20.94C135.971 21.348 136.241 21.714 136.697 22.038C137.165 22.362 137.729 22.524 138.389 22.524C139.109 22.524 139.667 22.428 140.063 22.236C140.471 22.032 140.675 21.744 140.675 21.372C140.675 21.084 140.549 20.862 140.297 20.706C140.045 20.538 139.685 20.388 139.217 20.256C138.965 20.184 138.587 20.088 138.083 19.968C137.435 19.812 136.943 19.68 136.607 19.572C135.911 19.344 135.377 19.05 135.005 18.69C134.645 18.33 134.465 17.832 134.465 17.196C134.465 16.608 134.639 16.098 134.987 15.666C135.347 15.234 135.815 14.91 136.391 14.694C136.967 14.466 137.591 14.352 138.263 14.352C139.139 14.352 139.937 14.538 140.657 14.91C141.389 15.27 141.893 15.828 142.169 16.584L140.477 17.412C140.309 16.932 140.021 16.572 139.613 16.332C139.205 16.092 138.719 15.972 138.155 15.972C137.651 15.972 137.219 16.074 136.859 16.278C136.499 16.47 136.319 16.752 136.319 17.124C136.319 17.328 136.403 17.502 136.571 17.646C136.751 17.79 137.075 17.928 137.543 18.06L138.533 18.312C139.121 18.432 139.637 18.564 140.081 18.708C140.885 18.96 141.503 19.272 141.935 19.644C142.379 20.016 142.601 20.538 142.601 21.21C142.601 21.714 142.451 22.194 142.151 22.65C141.863 23.106 141.401 23.484 140.765 23.784C140.141 24.072 139.355 24.216 138.407 24.216ZM145.125 12.696C144.801 12.696 144.525 12.582 144.297 12.354C144.069 12.126 143.955 11.85 143.955 11.526C143.955 11.202 144.069 10.926 144.297 10.698C144.525 10.47 144.801 10.356 145.125 10.356C145.449 10.356 145.725 10.47 145.953 10.698C146.181 10.926 146.295 11.202 146.295 11.526C146.295 11.85 146.181 12.126 145.953 12.354C145.725 12.582 145.449 12.696 145.125 12.696ZM146.079 24H144.153V14.568H146.079V24ZM156.651 14.748C156.147 14.748 155.739 14.958 155.427 15.378C156.051 15.942 156.363 16.704 156.363 17.664C156.363 18.516 156.135 19.188 155.679 19.68C155.235 20.172 154.707 20.514 154.095 20.706C153.483 20.898 152.889 20.994 152.313 20.994C151.821 20.994 151.359 20.94 150.927 20.832C150.651 20.928 150.429 21.048 150.261 21.192C150.093 21.324 150.009 21.456 150.009 21.588C150.009 21.684 150.045 21.768 150.117 21.84C150.213 21.948 150.429 22.032 150.765 22.092C151.113 22.14 151.599 22.194 152.223 22.254C153.399 22.35 154.257 22.458 154.797 22.578C155.637 22.758 156.297 23.064 156.777 23.496C157.257 23.928 157.497 24.564 157.497 25.404C157.497 26.316 157.089 27.018 156.273 27.51C155.457 28.014 154.287 28.266 152.763 28.266C151.167 28.266 149.961 28.062 149.145 27.654C148.329 27.258 147.921 26.604 147.921 25.692C147.921 24.768 148.449 24.042 149.505 23.514C149.061 23.358 148.743 23.16 148.551 22.92C148.371 22.68 148.281 22.398 148.281 22.074C148.281 21.75 148.407 21.444 148.659 21.156C148.923 20.856 149.277 20.586 149.721 20.346C148.737 19.77 148.245 18.876 148.245 17.664C148.245 16.812 148.467 16.14 148.911 15.648C149.367 15.156 149.901 14.814 150.513 14.622C151.137 14.43 151.737 14.334 152.313 14.334C152.925 14.334 153.513 14.43 154.077 14.622C154.713 13.59 155.547 13.074 156.579 13.074C156.939 13.074 157.317 13.146 157.713 13.29V15.09C157.605 14.994 157.449 14.916 157.245 14.856C157.053 14.784 156.855 14.748 156.651 14.748ZM152.313 19.5C152.925 19.5 153.441 19.35 153.861 19.05C154.293 18.75 154.509 18.288 154.509 17.664C154.509 17.04 154.293 16.578 153.861 16.278C153.441 15.966 152.925 15.81 152.313 15.81C151.701 15.81 151.185 15.966 150.765 16.278C150.345 16.578 150.135 17.04 150.135 17.664C150.135 18.288 150.345 18.75 150.765 19.05C151.185 19.35 151.701 19.5 152.313 19.5ZM153.069 24.018C152.985 24.006 152.799 23.988 152.511 23.964C152.235 23.94 151.875 23.91 151.431 23.874C150.807 23.982 150.363 24.18 150.099 24.468C149.847 24.756 149.721 25.056 149.721 25.368C149.721 25.596 149.829 25.812 150.045 26.016C150.273 26.232 150.615 26.406 151.071 26.538C151.539 26.682 152.109 26.754 152.781 26.754C153.657 26.754 154.341 26.622 154.833 26.358C155.325 26.106 155.571 25.758 155.571 25.314C155.571 24.894 155.367 24.594 154.959 24.414C154.551 24.234 153.921 24.102 153.069 24.018ZM163.679 14.334C164.579 14.334 165.413 14.598 166.181 15.126C166.949 15.642 167.333 16.596 167.333 17.988V24H165.407V18.294C165.371 17.61 165.179 17.07 164.831 16.674C164.495 16.278 164.057 16.08 163.517 16.08C163.133 16.08 162.749 16.188 162.365 16.404C161.993 16.608 161.675 16.926 161.411 17.358C161.147 17.778 160.991 18.306 160.943 18.942V24H159.017V14.568H160.943V15.81C161.267 15.354 161.687 14.994 162.203 14.73C162.719 14.466 163.211 14.334 163.679 14.334ZM173.073 24.216C171.981 24.216 171.075 24.012 170.355 23.604C169.635 23.196 169.125 22.626 168.825 21.894L170.553 20.94C170.637 21.348 170.907 21.714 171.363 22.038C171.831 22.362 172.395 22.524 173.055 22.524C173.775 22.524 174.333 22.428 174.729 22.236C175.137 22.032 175.341 21.744 175.341 21.372C175.341 21.084 175.215 20.862 174.963 20.706C174.711 20.538 174.351 20.388 173.883 20.256C173.631 20.184 173.253 20.088 172.749 19.968C172.101 19.812 171.609 19.68 171.273 19.572C170.577 19.344 170.043 19.05 169.671 18.69C169.311 18.33 169.131 17.832 169.131 17.196C169.131 16.608 169.305 16.098 169.653 15.666C170.013 15.234 170.481 14.91 171.057 14.694C171.633 14.466 172.257 14.352 172.929 14.352C173.805 14.352 174.603 14.538 175.323 14.91C176.055 15.27 176.559 15.828 176.835 16.584L175.143 17.412C174.975 16.932 174.687 16.572 174.279 16.332C173.871 16.092 173.385 15.972 172.821 15.972C172.317 15.972 171.885 16.074 171.525 16.278C171.165 16.47 170.985 16.752 170.985 17.124C170.985 17.328 171.069 17.502 171.237 17.646C171.417 17.79 171.741 17.928 172.209 18.06L173.199 18.312C173.787 18.432 174.303 18.564 174.747 18.708C175.551 18.96 176.169 19.272 176.601 19.644C177.045 20.016 177.267 20.538 177.267 21.21C177.267 21.714 177.117 22.194 176.817 22.65C176.529 23.106 176.067 23.484 175.431 23.784C174.807 24.072 174.021 24.216 173.073 24.216Z" fill="currentColor"/>
</svg>
