<svg width="92" height="61" viewBox="0 0 92 61" fill="currentColor" xmlns="http://www.w3.org/2000/svg">
<path d="M13.152 57.168C11.9013 57.168 10.912 56.9533 10.184 56.524C9.46533 56.0853 8.94733 55.558 8.63 54.942L9.904 53.976C10.492 55.1707 11.5933 55.768 13.208 55.768C13.852 55.768 14.398 55.6513 14.846 55.418C15.3033 55.1847 15.532 54.8113 15.532 54.298C15.532 53.9153 15.4013 53.6167 15.14 53.402C14.888 53.1873 14.496 52.996 13.964 52.828C13.4787 52.6787 13.1753 52.59 13.054 52.562C12.2513 52.3287 11.6727 52.1467 11.318 52.016C10.422 51.68 9.82933 51.2927 9.54 50.854C9.25067 50.4153 9.106 49.958 9.106 49.482C9.106 49.09 9.22733 48.67 9.47 48.222C9.722 47.7647 10.114 47.3773 10.646 47.06C11.1873 46.7333 11.864 46.57 12.676 46.57C13.5813 46.57 14.3373 46.6913 14.944 46.934C15.5507 47.1767 16.1387 47.5873 16.708 48.166L15.294 49.104C14.7247 48.3667 13.894 47.998 12.802 47.998C12.242 47.998 11.808 48.082 11.5 48.25C11.2013 48.418 11.0007 48.6047 10.898 48.81C10.8047 49.0153 10.758 49.1973 10.758 49.356C10.758 49.692 10.8887 49.9627 11.15 50.168C11.4113 50.3733 11.7987 50.56 12.312 50.728C12.3587 50.7467 12.718 50.854 13.39 51.05C13.81 51.162 14.244 51.288 14.692 51.428C15.672 51.7547 16.3253 52.17 16.652 52.674C16.988 53.178 17.156 53.6633 17.156 54.13C17.156 54.634 17.0347 55.1147 16.792 55.572C16.5587 56.0293 16.1433 56.412 15.546 56.72C14.958 57.0187 14.16 57.168 13.152 57.168ZM25.798 51.652C26.3114 51.8107 26.736 52.086 27.072 52.478C27.408 52.87 27.576 53.3787 27.576 54.004C27.576 56.0013 26.4374 57 24.16 57H18.574V46.738H23.642C24.818 46.738 25.7187 46.9387 26.344 47.34C26.9787 47.732 27.296 48.418 27.296 49.398C27.296 49.846 27.1747 50.294 26.932 50.742C26.6894 51.1807 26.3114 51.484 25.798 51.652ZM23.642 48.096C23.446 48.0867 22.2654 48.082 20.1 48.082V51.008H23.642C24.454 51.008 24.986 50.8773 25.238 50.616C25.4994 50.3547 25.63 50 25.63 49.552C25.63 49.1413 25.532 48.8333 25.336 48.628C25.14 48.4133 24.9067 48.278 24.636 48.222C24.3654 48.1567 24.034 48.1147 23.642 48.096ZM23.39 55.656C23.8847 55.656 24.3 55.628 24.636 55.572C24.9814 55.516 25.2754 55.3667 25.518 55.124C25.77 54.8813 25.896 54.508 25.896 54.004C25.896 53.5 25.7747 53.1267 25.532 52.884C25.2894 52.6413 25.014 52.492 24.706 52.436C24.398 52.38 24.0434 52.352 23.642 52.352H20.1V55.656H23.39ZM36.148 46.738C37.7907 46.738 38.948 47.242 39.62 48.25C40.292 49.258 40.628 50.4667 40.628 51.876C40.628 53.2853 40.292 54.494 39.62 55.502C38.948 56.5007 37.7907 57 36.148 57H31.57V46.738H36.148ZM35.728 55.656C36.3347 55.656 36.8713 55.5673 37.338 55.39C37.8047 55.2033 38.192 54.8347 38.5 54.284C38.8173 53.724 38.976 52.9213 38.976 51.876C38.976 50.8307 38.8173 50.028 38.5 49.468C38.192 48.908 37.8047 48.5393 37.338 48.362C36.8713 48.1753 36.3347 48.082 35.728 48.082H33.096V55.656H35.728ZM43.1339 53.71C43.1992 54.3447 43.3999 54.8673 43.7359 55.278C44.0719 55.6887 44.5572 55.894 45.1919 55.894C45.6772 55.894 46.0552 55.796 46.3259 55.6C46.5965 55.404 46.8392 55.068 47.0539 54.592L48.4539 55.04C48.2205 55.6653 47.8379 56.1787 47.3059 56.58C46.7739 56.9813 46.0692 57.182 45.1919 57.182C44.2865 57.182 43.5725 56.972 43.0499 56.552C42.5272 56.1227 42.1632 55.6187 41.9579 55.04C41.7619 54.452 41.6639 53.8827 41.6639 53.332C41.6639 52.7813 41.7619 52.2167 41.9579 51.638C42.1632 51.05 42.5272 50.546 43.0499 50.126C43.5725 49.6967 44.2865 49.482 45.1919 49.482C46.0972 49.482 46.8112 49.6967 47.3339 50.126C47.8659 50.546 48.2299 51.05 48.4259 51.638C48.6312 52.2167 48.7339 52.7813 48.7339 53.332C48.7339 53.4907 48.7292 53.6167 48.7199 53.71H43.1339ZM45.1919 50.77C44.6319 50.77 44.1839 50.9333 43.8479 51.26C43.5212 51.5867 43.3065 52.0113 43.2039 52.534H47.1939C47.0912 52.0113 46.8719 51.5867 46.5359 51.26C46.2092 50.9333 45.7612 50.77 45.1919 50.77ZM52.65 57.168C51.8007 57.168 51.096 57.0093 50.536 56.692C49.976 56.3747 49.5794 55.9313 49.346 55.362L50.69 54.62C50.7554 54.9373 50.9654 55.222 51.32 55.474C51.684 55.726 52.1227 55.852 52.636 55.852C53.196 55.852 53.63 55.7773 53.938 55.628C54.2554 55.4693 54.414 55.2453 54.414 54.956C54.414 54.732 54.316 54.5593 54.12 54.438C53.924 54.3073 53.644 54.1907 53.28 54.088C53.084 54.032 52.79 53.9573 52.398 53.864C51.894 53.7427 51.5114 53.64 51.25 53.556C50.7087 53.3787 50.2934 53.15 50.004 52.87C49.724 52.59 49.584 52.2027 49.584 51.708C49.584 51.2507 49.7194 50.854 49.99 50.518C50.27 50.182 50.634 49.93 51.082 49.762C51.53 49.5847 52.0154 49.496 52.538 49.496C53.2194 49.496 53.84 49.6407 54.4 49.93C54.9694 50.21 55.3614 50.644 55.576 51.232L54.26 51.876C54.1294 51.5027 53.9054 51.2227 53.588 51.036C53.2707 50.8493 52.8927 50.756 52.454 50.756C52.062 50.756 51.726 50.8353 51.446 50.994C51.166 51.1433 51.026 51.3627 51.026 51.652C51.026 51.8107 51.0914 51.946 51.222 52.058C51.362 52.17 51.614 52.2773 51.978 52.38L52.748 52.576C53.2054 52.6693 53.6067 52.772 53.952 52.884C54.5774 53.08 55.058 53.3227 55.394 53.612C55.7394 53.9013 55.912 54.3073 55.912 54.83C55.912 55.222 55.7954 55.5953 55.562 55.95C55.338 56.3047 54.9787 56.5987 54.484 56.832C53.9987 57.056 53.3874 57.168 52.65 57.168ZM57.8749 48.208C57.6229 48.208 57.4082 48.1193 57.2309 47.942C57.0536 47.7647 56.9649 47.55 56.9649 47.298C56.9649 47.046 57.0536 46.8313 57.2309 46.654C57.4082 46.4767 57.6229 46.388 57.8749 46.388C58.1269 46.388 58.3416 46.4767 58.5189 46.654C58.6962 46.8313 58.7849 47.046 58.7849 47.298C58.7849 47.55 58.6962 47.7647 58.5189 47.942C58.3416 48.1193 58.1269 48.208 57.8749 48.208ZM58.6169 57H57.1189V49.664H58.6169V57ZM66.84 49.804C66.448 49.804 66.1307 49.9673 65.888 50.294C66.3734 50.7327 66.616 51.3253 66.616 52.072C66.616 52.7347 66.4387 53.2573 66.084 53.64C65.7387 54.0227 65.328 54.2887 64.852 54.438C64.376 54.5873 63.914 54.662 63.466 54.662C63.0834 54.662 62.724 54.62 62.388 54.536C62.1734 54.6107 62.0007 54.704 61.87 54.816C61.7394 54.9187 61.674 55.0213 61.674 55.124C61.674 55.1987 61.702 55.264 61.758 55.32C61.8327 55.404 62.0007 55.4693 62.262 55.516C62.5327 55.5533 62.9107 55.5953 63.396 55.642C64.3107 55.7167 64.978 55.8007 65.398 55.894C66.0514 56.034 66.5647 56.272 66.938 56.608C67.3114 56.944 67.498 57.4387 67.498 58.092C67.498 58.8013 67.1807 59.3473 66.546 59.73C65.9114 60.122 65.0014 60.318 63.816 60.318C62.5747 60.318 61.6367 60.1593 61.002 59.842C60.3674 59.534 60.05 59.0253 60.05 58.316C60.05 57.5973 60.4607 57.0327 61.282 56.622C60.9367 56.5007 60.6894 56.3467 60.54 56.16C60.4 55.9733 60.33 55.754 60.33 55.502C60.33 55.25 60.428 55.012 60.624 54.788C60.8294 54.5547 61.1047 54.3447 61.45 54.158C60.6847 53.71 60.302 53.0147 60.302 52.072C60.302 51.4093 60.4747 50.8867 60.82 50.504C61.1747 50.1213 61.59 49.8553 62.066 49.706C62.5514 49.5567 63.018 49.482 63.466 49.482C63.942 49.482 64.3994 49.5567 64.838 49.706C65.3327 48.9033 65.9814 48.502 66.784 48.502C67.064 48.502 67.358 48.558 67.666 48.67V50.07C67.582 49.9953 67.4607 49.9347 67.302 49.888C67.1527 49.832 66.9987 49.804 66.84 49.804ZM63.466 53.5C63.942 53.5 64.3434 53.3833 64.67 53.15C65.006 52.9167 65.174 52.5573 65.174 52.072C65.174 51.5867 65.006 51.2273 64.67 50.994C64.3434 50.7513 63.942 50.63 63.466 50.63C62.99 50.63 62.5887 50.7513 62.262 50.994C61.9354 51.2273 61.772 51.5867 61.772 52.072C61.772 52.5573 61.9354 52.9167 62.262 53.15C62.5887 53.3833 62.99 53.5 63.466 53.5ZM64.054 57.014C63.9887 57.0047 63.844 56.9907 63.62 56.972C63.4054 56.9533 63.1254 56.93 62.78 56.902C62.2947 56.986 61.9494 57.14 61.744 57.364C61.548 57.588 61.45 57.8213 61.45 58.064C61.45 58.2413 61.534 58.4093 61.702 58.568C61.8794 58.736 62.1454 58.8713 62.5 58.974C62.864 59.086 63.3074 59.142 63.83 59.142C64.5114 59.142 65.0434 59.0393 65.426 58.834C65.8087 58.638 66 58.3673 66 58.022C66 57.6953 65.8414 57.462 65.524 57.322C65.2067 57.182 64.7167 57.0793 64.054 57.014ZM72.3063 49.482C73.0063 49.482 73.6549 49.6873 74.2523 50.098C74.8496 50.4993 75.1483 51.2413 75.1483 52.324V57H73.6503V52.562C73.6223 52.03 73.4729 51.61 73.2023 51.302C72.9409 50.994 72.6003 50.84 72.1803 50.84C71.8816 50.84 71.5829 50.924 71.2843 51.092C70.9949 51.2507 70.7476 51.498 70.5423 51.834C70.3369 52.1607 70.2156 52.5713 70.1783 53.066V57H68.6803V49.664H70.1783V50.63C70.4303 50.2753 70.7569 49.9953 71.1583 49.79C71.5596 49.5847 71.9423 49.482 72.3063 49.482ZM79.6126 57.168C78.7633 57.168 78.0586 57.0093 77.4986 56.692C76.9386 56.3747 76.542 55.9313 76.3086 55.362L77.6526 54.62C77.718 54.9373 77.928 55.222 78.2826 55.474C78.6466 55.726 79.0853 55.852 79.5986 55.852C80.1586 55.852 80.5926 55.7773 80.9006 55.628C81.218 55.4693 81.3766 55.2453 81.3766 54.956C81.3766 54.732 81.2786 54.5593 81.0826 54.438C80.8866 54.3073 80.6066 54.1907 80.2426 54.088C80.0466 54.032 79.7526 53.9573 79.3606 53.864C78.8566 53.7427 78.474 53.64 78.2126 53.556C77.6713 53.3787 77.256 53.15 76.9666 52.87C76.6866 52.59 76.5466 52.2027 76.5466 51.708C76.5466 51.2507 76.682 50.854 76.9526 50.518C77.2326 50.182 77.5966 49.93 78.0446 49.762C78.4926 49.5847 78.978 49.496 79.5006 49.496C80.182 49.496 80.8026 49.6407 81.3626 49.93C81.932 50.21 82.324 50.644 82.5386 51.232L81.2226 51.876C81.092 51.5027 80.868 51.2227 80.5506 51.036C80.2333 50.8493 79.8553 50.756 79.4166 50.756C79.0246 50.756 78.6886 50.8353 78.4086 50.994C78.1286 51.1433 77.9886 51.3627 77.9886 51.652C77.9886 51.8107 78.054 51.946 78.1846 52.058C78.3246 52.17 78.5766 52.2773 78.9406 52.38L79.7106 52.576C80.168 52.6693 80.5693 52.772 80.9146 52.884C81.54 53.08 82.0206 53.3227 82.3566 53.612C82.702 53.9013 82.8746 54.3073 82.8746 54.83C82.8746 55.222 82.758 55.5953 82.5246 55.95C82.3006 56.3047 81.9413 56.5987 81.4466 56.832C80.9613 57.056 80.35 57.168 79.6126 57.168Z" fill="currentColor"/>
<path d="M44.7327 16.8208V17.3208H45.2327V16.8208H44.7327ZM28.0147 16.8208L27.5179 16.764L27.4542 17.3208H28.0147V16.8208ZM28.0025 15.2933L28.4984 15.2293L28.4984 15.2293L28.0025 15.2933ZM27.9794 13.8897L28.4771 13.9373L28.4771 13.9373L27.9794 13.8897ZM28.4263 9.22084L27.9286 9.1732L27.9286 9.1732L28.4263 9.22084ZM23.7993 4.5138L23.9419 4.99304L23.9419 4.99304L23.7993 4.5138ZM23.5744 4.58559L23.4135 4.11218L23.4135 4.11218L23.5744 4.58559ZM16.5902 5.02225L16.2884 4.62361L15.383 5.30908L16.5 5.51403L16.5902 5.02225ZM27.4357 18.8208V18.3208H27.1216L26.9853 18.6036L27.4357 18.8208ZM10.8085 18.8208L11.2698 18.6277L11.1413 18.3208H10.8085V18.8208ZM10.6207 18.8208H10.1207V19.3208H10.6207V18.8208ZM10.6207 18.3043H11.1207V18.2285L11.0982 18.1561L10.6207 18.3043ZM10.464 15.5229L9.97256 15.4307L9.97256 15.4307L10.464 15.5229ZM10.5615 14.6012L11.0614 14.6138L11.0918 13.4111L10.2179 14.238L10.5615 14.6012ZM7.69533 17.313L7.35169 16.9498L7.19533 17.0978L7.19533 17.313L7.69533 17.313ZM7.69533 24.024L7.19533 24.024L7.19533 25.435L8.08376 24.3389L7.69533 24.024ZM10.5661 20.4823L10.8809 20.0939L10.4925 19.7791L10.1777 20.1675L10.5661 20.4823ZM12.1198 21.7417L12.5082 22.0566L12.8231 21.6681L12.4346 21.3533L12.1198 21.7417ZM9.10733 25.4582L8.7189 25.1434L8.05843 25.9582H9.10733V25.4582ZM83.3397 25.4582V25.9582H84.3886L83.7281 25.1434L83.3397 25.4582ZM80.3272 21.7417L80.0124 21.3533L79.624 21.6681L79.9388 22.0566L80.3272 21.7417ZM81.8809 20.4823L82.2694 20.1675L81.9545 19.7791L81.5661 20.0939L81.8809 20.4823ZM84.7517 24.0241L84.3633 24.3389L85.2517 25.435V24.0241H84.7517ZM84.7517 17.3131H85.2517V17.0978L85.0954 16.9499L84.7517 17.3131ZM81.8855 14.6012L82.2292 14.238L81.3552 13.4111L81.3857 14.6138L81.8855 14.6012ZM81.9831 15.5229L82.4745 15.4307L82.4745 15.4307L81.9831 15.5229ZM81.8263 18.3043L81.3488 18.156L81.3263 18.2284V18.3043H81.8263ZM81.8263 18.8208V19.3208H82.3263V18.8208H81.8263ZM81.6385 18.8208V18.3208H81.3058L81.1773 18.6277L81.6385 18.8208ZM65.0114 18.8208L65.4618 18.6036L65.3254 18.3208H65.0114V18.8208ZM87.3743 15.5728V16.0728H88.693L87.7058 15.1985L87.3743 15.5728ZM85.8269 15.5728L85.4832 15.936L85.6278 16.0728H85.8269V15.5728ZM82.298 11.0769L82.6295 10.7026L81.9314 10.0843L81.8028 11.008L82.298 11.0769ZM82.1557 12.0992L81.6605 12.0303L81.6249 12.2854L81.812 12.4624L82.1557 12.0992ZM78.2188 4.42289L77.8691 4.78025L78.0609 4.96795L78.3233 4.91184L78.2188 4.42289ZM82.5456 9.26751L82.0479 9.21935L81.8997 10.7509L82.9199 9.59901L82.5456 9.26751ZM46.2235 9.53063L45.7448 9.67497L46.2235 11.2627L46.7022 9.67497L46.2235 9.53063ZM14.2283 4.42289L14.1237 4.91184L14.3862 4.96796L14.578 4.78025L14.2283 4.42289ZM9.90142 9.26748L9.52711 9.59899L10.5473 10.7509L10.3991 9.21932L9.90142 9.26748ZM9.58232 8.90719L9.95663 8.57568L9.62512 8.20138L9.25082 8.53288L9.58232 8.90719ZM1.77232 15.8241L1.44082 15.4498L1.44082 15.4498L1.77232 15.8241ZM1.43533 16.1226L1.10383 15.7483L0.935333 15.8975V16.1226H1.43533ZM2.94771 33.1419L2.60261 33.5037L2.60261 33.5037L2.94771 33.1419ZM5.29072 34.6931L5.07909 35.1461L5.0791 35.1461L5.29072 34.6931ZM13.4727 35.0957H13.9727V34.5957H13.4727V35.0957ZM19.5653 35.0957V34.5957H19.0653V35.0957H19.5653ZM72.8817 35.0957H73.3817V34.5957H72.8817V35.0957ZM78.9744 35.0957V34.5957H78.4744V35.0957H78.9744ZM87.1563 34.6931L87.368 35.1461L87.368 35.1461L87.1563 34.6931ZM89.4993 33.1419L89.8444 33.5037L89.8444 33.5037L89.4993 33.1419ZM91.0117 16.1226H91.5117V15.8975L91.3432 15.7483L91.0117 16.1226ZM90.6747 15.8241L91.0062 15.4498L91.0062 15.4498L90.6747 15.8241ZM82.8647 8.90719L83.1962 8.53288L82.8219 8.20138L82.4904 8.57569L82.8647 8.90719ZM74.8817 35.0957V34.5957H74.3817V35.0957H74.8817ZM76.9744 35.0957H77.4744V34.5957H76.9744V35.0957ZM84.6783 33.0957V33.5957H85.1783V33.0957H84.6783ZM84.6783 27.4582H85.1783V26.9582H84.6783V27.4582ZM7.76878 27.4582V26.9582H7.26878V27.4582H7.76878ZM7.76878 33.0957H7.26878V33.5957H7.76878V33.0957ZM86.6783 32.6981H86.1783V33.5267L86.9113 33.1405L86.6783 32.6981ZM88.1189 31.6947L87.7739 31.3329L87.7738 31.3329L88.1189 31.6947ZM86.6783 27.4582V26.9582H86.1783V27.4582H86.6783ZM86.7517 27.4582V27.9582H87.2517V27.4582H86.7517ZM86.7517 17.5728V17.0728H86.2517V17.5728H86.7517ZM89.0117 17.5728H89.5117V17.0728H89.0117V17.5728ZM68.8726 4.58559L68.7117 5.05899L68.7117 5.059L68.8726 4.58559ZM75.8568 5.02224L75.947 5.51403L77.064 5.30907L76.1586 4.6236L75.8568 5.02224ZM68.6477 4.5138L68.7903 4.03456L68.7903 4.03456L68.6477 4.5138ZM64.0207 9.22084L63.523 9.26849L63.523 9.26849L64.0207 9.22084ZM64.4676 13.8897L64.9654 13.842L64.9654 13.842L64.4676 13.8897ZM64.4446 15.2933L64.9404 15.3573L64.9404 15.3573L64.4446 15.2933ZM64.4324 16.8208V17.3208H64.9928L64.9291 16.764L64.4324 16.8208ZM47.7144 16.8208H47.2144V17.3208H47.7144V16.8208ZM5.76878 27.4582H6.26878V26.9582H5.76878V27.4582ZM5.76878 32.6981L5.53573 33.1405L6.26878 33.5267V32.6981H5.76878ZM5.69533 27.4582H5.19533V27.9582H5.69533V27.4582ZM5.69533 26.4582L5.19533 26.4582V26.4582H5.69533ZM5.69533 17.5728L6.19533 17.5728L6.19533 17.0728H5.69533V17.5728ZM3.43533 17.5728V17.0728H2.93533V17.5728H3.43533ZM4.3281 31.6947L4.6732 31.3329L4.6732 31.3329L4.3281 31.6947ZM6.62014 15.5728V16.0728H6.81919L6.96378 15.936L6.62014 15.5728ZM10.2913 12.0992L10.635 12.4624L10.8221 12.2854L10.7866 12.0303L10.2913 12.0992ZM5.07272 15.5728L4.74121 15.1985L3.75402 16.0728H5.07272V15.5728ZM10.149 11.0769L10.6442 11.008L10.5156 10.0843L9.8175 10.7026L10.149 11.0769ZM17.5653 35.0957H18.0653V34.5957H17.5653V35.0957ZM15.4727 35.0957V34.5957H14.9727V35.0957H15.4727ZM34.7327 2.5H22.6207V3.5H34.7327V2.5ZM45.2327 13C45.2327 7.20101 40.5317 2.5 34.7327 2.5V3.5C39.9794 3.5 44.2327 7.75329 44.2327 13H45.2327ZM45.2327 16.8208V13H44.2327V16.8208H45.2327ZM28.0147 17.3208H44.7327V16.3208H28.0147V17.3208ZM27.5066 15.3573C27.5685 15.8369 27.57 16.308 27.5179 16.764L28.5114 16.8776C28.5727 16.3418 28.5707 15.7895 28.4984 15.2293L27.5066 15.3573ZM27.4817 13.842C27.4334 14.3465 27.4417 14.8547 27.5066 15.3573L28.4984 15.2293C28.4431 14.8008 28.436 14.3674 28.4771 13.9373L27.4817 13.842ZM27.9286 9.1732L27.4817 13.842L28.4771 13.9373L28.924 9.26849L27.9286 9.1732ZM23.9419 4.99304C25.0727 4.65663 26.1055 5.04784 26.8529 5.85963C27.6095 6.68145 28.0488 7.91706 27.9286 9.1732L28.924 9.26849C29.071 7.7338 28.5404 6.21616 27.5885 5.1823C26.6275 4.13841 25.2132 3.57151 23.6568 4.03456L23.9419 4.99304ZM23.7353 5.059C23.8053 5.03521 23.8742 5.01319 23.9419 4.99304L23.6568 4.03456C23.576 4.0586 23.4948 4.08455 23.4135 4.11218L23.7353 5.059ZM16.5 5.51403C18.901 5.9546 21.3966 5.85378 23.7353 5.059L23.4135 4.11218C21.2566 4.8452 18.936 4.94433 16.6805 4.53046L16.5 5.51403ZM22.6207 2.5C20.2431 2.5 18.0488 3.29085 16.2884 4.62361L16.892 5.42088C18.4847 4.2151 20.4685 3.5 22.6207 3.5V2.5ZM27.4357 19.3208H44.7327V18.3208H27.4357V19.3208ZM21.767 22.8849C24.4892 22.8849 26.7984 21.2941 27.8861 19.0379L26.9853 18.6036C26.056 20.5313 24.0863 21.8849 21.767 21.8849V22.8849ZM16.158 22.8849H21.767V21.8849H16.158V22.8849ZM10.3473 19.0139C11.2865 21.2571 13.5012 22.8849 16.158 22.8849V21.8849C13.9255 21.8849 12.0616 20.5191 11.2698 18.6277L10.3473 19.0139ZM10.6207 19.3208H10.8085V18.3208H10.6207V19.3208ZM10.1207 18.3043V18.8208H11.1207V18.3043H10.1207ZM9.97256 15.4307C9.77571 16.4797 9.85031 17.5095 10.1432 18.4526L11.0982 18.1561C10.8526 17.3651 10.7893 16.5003 10.9554 15.6152L9.97256 15.4307ZM10.0617 14.5885C10.0545 14.8707 10.0248 15.1524 9.97256 15.4307L10.9554 15.6152C11.0175 15.2842 11.0529 14.9494 11.0614 14.6138L10.0617 14.5885ZM8.03898 17.6762L10.9052 14.9644L10.2179 14.238L7.35169 16.9498L8.03898 17.6762ZM8.19533 24.024L8.19533 17.313L7.19533 17.313L7.19533 24.024L8.19533 24.024ZM10.1777 20.1675L7.30691 23.7092L8.08376 24.3389L10.9545 20.7972L10.1777 20.1675ZM12.4346 21.3533L10.8809 20.0939L10.2513 20.8708L11.805 22.1301L12.4346 21.3533ZM9.49576 25.7731L12.5082 22.0566L11.7314 21.4269L8.7189 25.1434L9.49576 25.7731ZM45.7144 24.9582H9.10733V25.9582H45.7144V24.9582ZM46.7327 24.9582H45.7144V25.9582H46.7327V24.9582ZM83.3397 24.9582H46.7327V25.9582H83.3397V24.9582ZM79.9388 22.0566L82.9513 25.7731L83.7281 25.1434L80.7157 21.4269L79.9388 22.0566ZM81.5661 20.0939L80.0124 21.3533L80.6421 22.1301L82.1958 20.8708L81.5661 20.0939ZM85.1401 23.7092L82.2694 20.1675L81.4925 20.7972L84.3633 24.3389L85.1401 23.7092ZM84.2517 17.3131V24.0241H85.2517V17.3131H84.2517ZM81.5419 14.9644L84.4081 17.6762L85.0954 16.9499L82.2292 14.238L81.5419 14.9644ZM82.4745 15.4307C82.4222 15.1523 82.3925 14.8707 82.3854 14.5885L81.3857 14.6138C81.3942 14.9494 81.4295 15.2842 81.4916 15.6152L82.4745 15.4307ZM82.3038 18.4526C82.5967 17.5094 82.6713 16.4797 82.4745 15.4307L81.4916 15.6152C81.6577 16.5003 81.5945 17.365 81.3488 18.156L82.3038 18.4526ZM82.3263 18.8208V18.3043H81.3263V18.8208H82.3263ZM81.6385 19.3208H81.8263V18.3208H81.6385V19.3208ZM76.289 22.8849C78.9458 22.8849 81.1606 21.2571 82.0997 19.0139L81.1773 18.6277C80.3854 20.5191 78.5215 21.8849 76.289 21.8849V22.8849ZM70.68 22.8849H76.289V21.8849H70.68V22.8849ZM64.561 19.0379C65.6486 21.2941 67.9579 22.8849 70.68 22.8849V21.8849C68.3607 21.8849 66.391 20.5313 65.4618 18.6036L64.561 19.0379ZM47.7144 19.3208H65.0114V18.3208H47.7144V19.3208ZM46.7327 19.3208H47.7144V18.3208H46.7327V19.3208ZM45.7144 19.3208H46.7327V18.3208H45.7144V19.3208ZM44.7327 19.3208H45.7144V18.3208H44.7327V19.3208ZM87.3743 15.0728H85.8269V16.0728H87.3743V15.0728ZM81.9665 11.4512L87.0428 15.9471L87.7058 15.1985L82.6295 10.7026L81.9665 11.4512ZM82.6509 12.1682L82.7932 11.1459L81.8028 11.008L81.6605 12.0303L82.6509 12.1682ZM86.1705 15.2096L82.4993 11.736L81.812 12.4624L85.4832 15.936L86.1705 15.2096ZM78.3233 4.91184C79.3928 4.68318 80.363 5.11459 81.0619 5.94262C81.7671 6.77808 82.1667 7.99235 82.0479 9.21935L83.0433 9.31567C83.1876 7.82493 82.7079 6.34231 81.8261 5.2976C80.938 4.24546 79.6133 3.61343 78.1143 3.93394L78.3233 4.91184ZM69.8263 1.5C72.9571 1.5 75.7949 2.75043 77.8691 4.78025L78.5685 4.06553C76.315 1.86026 73.229 0.5 69.8263 0.5V1.5ZM57.7144 1.5H69.8263V0.5H57.7144V1.5ZM46.7022 9.67497C48.1286 4.94439 52.5199 1.5 57.7144 1.5V0.5C52.0666 0.5 47.2949 4.24515 45.7448 9.38629L46.7022 9.67497ZM34.7327 1.5C39.9272 1.5 44.3185 4.94439 45.7448 9.67497L46.7022 9.38629C45.1521 4.24515 40.3804 0.5 34.7327 0.5V1.5ZM22.6207 1.5H34.7327V0.5H22.6207V1.5ZM14.578 4.78025C16.6522 2.75044 19.4899 1.5 22.6207 1.5V0.5C19.218 0.5 16.132 1.86026 13.8785 4.06554L14.578 4.78025ZM10.3991 9.21932C10.2804 7.99233 10.6799 6.77806 11.3851 5.94261C12.084 5.11458 13.0542 4.68317 14.1237 4.91184L14.3328 3.93395C12.8338 3.61342 11.509 4.24545 10.6209 5.29758C9.73911 6.34229 9.25948 7.82491 9.40374 9.31564L10.3991 9.21932ZM9.20802 9.23869L9.52711 9.59899L10.2757 8.93598L9.95663 8.57568L9.20802 9.23869ZM2.10383 16.1985L9.91383 9.28149L9.25082 8.53288L1.44082 15.4498L2.10383 16.1985ZM1.76684 16.4969L2.10383 16.1985L1.44082 15.4498L1.10383 15.7483L1.76684 16.4969ZM1.93533 16.5728V16.1226H0.935333V16.5728H1.93533ZM1.93533 29.9145V16.5728H0.935333V29.9145H1.93533ZM3.29281 32.7801C2.56158 32.0827 1.93533 31.1286 1.93533 29.9145H0.935333C0.935333 31.501 1.75895 32.6991 2.60261 33.5037L3.29281 32.7801ZM5.50235 34.2401C4.89662 33.9571 4.02245 33.4761 3.29281 32.7801L2.60261 33.5037C3.44327 34.3056 4.42635 34.8411 5.07909 35.1461L5.50235 34.2401ZM7.27324 34.5957C6.68836 34.5957 6.07484 34.5075 5.50235 34.2401L5.0791 35.1461C5.82347 35.4938 6.59286 35.5957 7.27324 35.5957V34.5957ZM13.4727 34.5957H7.27324V35.5957H13.4727V34.5957ZM13.9727 38.1593V35.0957H12.9727V38.1593H13.9727ZM16.519 40.7057C15.1127 40.7057 13.9727 39.5657 13.9727 38.1593H12.9727C12.9727 40.1179 14.5604 41.7057 16.519 41.7057V40.7057ZM19.0653 38.1593C19.0653 39.5657 17.9253 40.7057 16.519 40.7057V41.7057C18.4776 41.7057 20.0653 40.1179 20.0653 38.1593H19.0653ZM19.0653 35.0957V38.1593H20.0653V35.0957H19.0653ZM45.7144 34.5957H19.5653V35.5957H45.7144V34.5957ZM46.7327 34.5957H45.7144V35.5957H46.7327V34.5957ZM72.8817 34.5957H46.7327V35.5957H72.8817V34.5957ZM73.3817 38.1593V35.0957H72.3817V38.1593H73.3817ZM75.9281 40.7057C74.5218 40.7057 73.3817 39.5657 73.3817 38.1593H72.3817C72.3817 40.1179 73.9695 41.7057 75.9281 41.7057V40.7057ZM78.4744 38.1593C78.4744 39.5657 77.3344 40.7057 75.9281 40.7057V41.7057C77.8867 41.7057 79.4744 40.1179 79.4744 38.1593H78.4744ZM78.4744 35.0957V38.1593H79.4744V35.0957H78.4744ZM85.1738 34.5957H78.9744V35.5957H85.1738V34.5957ZM86.9447 34.2401C86.3722 34.5075 85.7587 34.5957 85.1738 34.5957V35.5957C85.8542 35.5957 86.6236 35.4938 87.368 35.1461L86.9447 34.2401ZM89.1542 32.7801C88.4246 33.4761 87.5504 33.9571 86.9447 34.2401L87.368 35.1461C88.0207 34.8411 89.0038 34.3056 89.8444 33.5037L89.1542 32.7801ZM90.5117 29.9145C90.5117 31.1286 89.8855 32.0827 89.1542 32.7801L89.8444 33.5037C90.6881 32.6991 91.5117 31.501 91.5117 29.9145H90.5117ZM90.5117 16.5728V29.9145H91.5117V16.5728H90.5117ZM90.5117 16.1226V16.5728H91.5117V16.1226H90.5117ZM90.3432 16.1985L90.6802 16.4969L91.3432 15.7483L91.0062 15.4498L90.3432 16.1985ZM82.5332 9.28149L90.3432 16.1985L91.0062 15.4498L83.1962 8.53288L82.5332 9.28149ZM82.9199 9.59901L83.239 9.23869L82.4904 8.57569L82.1713 8.936L82.9199 9.59901ZM74.8817 35.5957H76.9744V34.5957H74.8817V35.5957ZM75.3817 38.1593V35.0957H74.3817V38.1593H75.3817ZM75.9281 38.7057C75.6263 38.7057 75.3817 38.4611 75.3817 38.1593H74.3817C74.3817 39.0134 75.074 39.7057 75.9281 39.7057V38.7057ZM76.4744 38.1593C76.4744 38.4611 76.2298 38.7057 75.9281 38.7057V39.7057C76.7821 39.7057 77.4744 39.0134 77.4744 38.1593H76.4744ZM76.4744 35.0957V38.1593H77.4744V35.0957H76.4744ZM46.7327 32.5957H45.7144V33.5957H46.7327V32.5957ZM84.6783 32.5957H46.7327V33.5957H84.6783V32.5957ZM84.1783 27.4582V33.0957H85.1783V27.4582H84.1783ZM46.7327 27.9582H84.6783V26.9582H46.7327V27.9582ZM45.7144 27.9582H46.7327V26.9582H45.7144V27.9582ZM7.76878 27.9582H45.7144V26.9582H7.76878V27.9582ZM8.26878 33.0957V27.4582H7.26878V33.0957H8.26878ZM45.7144 32.5957H7.76878V33.5957H45.7144V32.5957ZM86.9113 33.1405C87.402 32.8819 87.9775 32.5206 88.464 32.0565L87.7738 31.3329C87.3778 31.7107 86.8891 32.0219 86.4452 32.2557L86.9113 33.1405ZM86.1783 27.4582V32.6981H87.1783V27.4582H86.1783ZM86.7517 26.9582H86.6783V27.9582H86.7517V26.9582ZM86.2517 26.4582V27.4582H87.2517V26.4582H86.2517ZM86.2517 17.5728V26.4582H87.2517V17.5728H86.2517ZM89.0117 17.0728H86.7517V18.0728H89.0117V17.0728ZM89.5117 29.9145V17.5728H88.5117V29.9145H89.5117ZM88.464 32.0565C89.0823 31.4668 89.5117 30.7567 89.5117 29.9145H88.5117C88.5117 30.3868 88.277 30.8529 87.7739 31.3329L88.464 32.0565ZM68.7117 5.059C71.0505 5.85378 73.546 5.9546 75.947 5.51403L75.7666 4.53045C73.511 4.94433 71.1905 4.8452 69.0335 4.11218L68.7117 5.059ZM68.5051 4.99304C68.5728 5.01319 68.6417 5.03521 68.7117 5.05899L69.0335 4.11218C68.9522 4.08455 68.8711 4.0586 68.7903 4.03456L68.5051 4.99304ZM64.5184 9.1732C64.3982 7.91706 64.8375 6.68145 65.5942 5.85963C66.3416 5.04784 67.3743 4.65663 68.5051 4.99304L68.7903 4.03456C67.2338 3.57151 65.8196 4.13841 64.8585 5.1823C63.9066 6.21616 63.3761 7.7338 63.523 9.26849L64.5184 9.1732ZM64.9654 13.842L64.5184 9.1732L63.523 9.26849L63.9699 13.9373L64.9654 13.842ZM64.9404 15.3573C65.0053 14.8547 65.0136 14.3465 64.9654 13.842L63.9699 13.9373C64.0111 14.3674 64.0039 14.8008 63.9487 15.2293L64.9404 15.3573ZM64.9291 16.764C64.877 16.308 64.8786 15.8369 64.9404 15.3573L63.9487 15.2293C63.8764 15.7895 63.8743 16.3418 63.9356 16.8776L64.9291 16.764ZM47.7144 17.3208H64.4324V16.3208H47.7144V17.3208ZM47.2144 13V16.8208H48.2144V13H47.2144ZM57.7144 2.5C51.9154 2.5 47.2144 7.20101 47.2144 13H48.2144C48.2144 7.75329 52.4677 3.5 57.7144 3.5V2.5ZM69.8263 2.5H57.7144V3.5H69.8263V2.5ZM76.1586 4.6236C74.3982 3.29085 72.2039 2.5 69.8263 2.5V3.5C71.9786 3.5 73.9623 4.2151 75.555 5.42088L76.1586 4.6236ZM5.26878 27.4582V32.6981H6.26878V27.4582H5.26878ZM5.69533 27.9582H5.76878V26.9582H5.69533V27.9582ZM5.19533 26.4582V27.4582H6.19533V26.4582H5.19533ZM5.19533 17.5728L5.19533 26.4582L6.19533 26.4582L6.19533 17.5728L5.19533 17.5728ZM3.43533 18.0728H5.69533V17.0728H3.43533V18.0728ZM3.93533 29.9145V17.5728H2.93533V29.9145H3.93533ZM4.6732 31.3329C4.17002 30.8529 3.93533 30.3868 3.93533 29.9145H2.93533C2.93533 30.7567 3.36476 31.4668 3.983 32.0565L4.6732 31.3329ZM6.00184 32.2557C5.55799 32.0219 5.0693 31.7107 4.6732 31.3329L3.983 32.0565C4.46956 32.5206 5.04503 32.8819 5.53573 33.1405L6.00184 32.2557ZM6.96378 15.936L10.635 12.4624L9.9477 11.736L6.2765 15.2096L6.96378 15.936ZM5.07272 16.0728H6.62014V15.0728H5.07272V16.0728ZM9.8175 10.7026L4.74121 15.1985L5.40422 15.9471L10.4805 11.4512L9.8175 10.7026ZM10.7866 12.0303L10.6442 11.008L9.65378 11.1459L9.79612 12.1682L10.7866 12.0303ZM17.5653 34.5957H15.4727V35.5957H17.5653V34.5957ZM18.0653 38.1593V35.0957H17.0653V38.1593H18.0653ZM16.519 39.7057C17.373 39.7057 18.0653 39.0134 18.0653 38.1593H17.0653C17.0653 38.4611 16.8207 38.7057 16.519 38.7057V39.7057ZM14.9727 38.1593C14.9727 39.0134 15.665 39.7057 16.519 39.7057V38.7057C16.2173 38.7057 15.9727 38.4611 15.9727 38.1593H14.9727ZM14.9727 35.0957V38.1593H15.9727V35.0957H14.9727Z" fill="currentColor"/>
</svg>
