<svg width="183" height="117" viewBox="0 0 183 117" fill="none" xmlns="http://www.w3.org/2000/svg">
<path d="M90.2557 12.0843L90.7543 12.1219L90.7574 12.0804L90.7536 12.0391L90.2557 12.0843ZM90.2212 35.3264V35.8264H90.7212V35.3264H90.2212ZM54.7865 35.3264L54.2906 35.3904L54.3469 35.8264H54.7865V35.3264ZM54.0476 29.5993L54.5435 29.5353L54.5435 29.5353L54.0476 29.5993ZM54.0182 27.8133L54.516 27.8609L54.516 27.8609L54.0182 27.8133ZM55.1803 15.6737L54.6826 15.6261L54.6826 15.6261L55.1803 15.6737ZM47.5912 7.70977L47.5105 7.21632L47.5105 7.21632L47.5912 7.70977ZM45.5491 8.16263L45.6916 8.64187L45.6916 8.64187L45.5491 8.16263ZM41.2196 10.119L41.4665 10.5538L41.4665 10.5538L41.2196 10.119ZM30.5913 9.99086L30.8457 9.56045L30.8457 9.56045L30.5913 9.99086ZM26.7326 8.16263L26.58 8.63877L26.58 8.63877L26.7326 8.16263ZM24.3416 7.61925L24.2638 8.11316L24.2638 8.11316L24.3416 7.61925ZM22.2422 7.63921L21.8203 7.3708L21.2042 8.33907L22.3329 8.13091L22.2422 7.63921ZM91.2591 8.11083L90.8026 8.31476L91.2591 9.3368L91.7157 8.31476L91.2591 8.11083ZM163.167 9.04678L162.694 9.21144L162.738 9.33725L162.839 9.42454L163.167 9.04678ZM165.589 15.8372L166.084 15.9062L166.084 15.9062L165.589 15.8372ZM165.297 17.9278L164.802 17.8589L164.765 18.1244L164.966 18.3021L165.297 17.9278ZM181.181 31.9953L180.85 32.3696L180.85 32.3696L181.181 31.9953ZM181.518 32.2938H182.018V32.0687L181.85 31.9195L181.518 32.2938ZM178.201 66.2673L177.878 65.886L177.878 65.886L178.201 66.2673ZM173.449 69.0968L173.641 69.5587L173.641 69.5587L173.449 69.0968ZM9.069 69.0968L8.87756 69.5587L8.87757 69.5587L9.069 69.0968ZM4.31712 66.2673L4.64058 65.886L4.64058 65.886L4.31712 66.2673ZM1 59.9402L1.5 59.9402V59.9402H1ZM1 32.2938L0.668495 31.9195L0.5 32.0687V32.2938H1ZM1.33699 31.9953L1.66849 32.3696L1.6685 32.3696L1.33699 31.9953ZM17.2207 17.9279L17.5522 18.3022L17.7529 18.1244L17.7159 17.8589L17.2207 17.9279ZM16.9296 15.8372L17.4248 15.7683L17.4248 15.7683L16.9296 15.8372ZM19.3518 9.04668L19.6793 9.42446L19.78 9.33716L19.8239 9.21135L19.3518 9.04668ZM172.033 67.4254L172.106 67.92L172.033 66.9254V67.4254ZM170.685 67.4254H170.185V67.9254H170.685V67.4254ZM170.685 53.8948H171.185V53.3948H170.685V53.8948ZM11.8334 53.8948V53.3948H11.3334V53.8948H11.8334ZM11.8334 67.4254V67.9254H12.3334V67.4254H11.8334ZM10.4855 67.4254V66.9254L10.4119 67.92L10.4855 67.4254ZM172.685 67.2486H172.185V67.9972L172.876 67.7105L172.685 67.2486ZM176.907 64.7422L177.231 65.1234L177.231 65.1234L176.907 64.7422ZM172.685 53.8948V53.3948H172.185V53.8948H172.685ZM172.835 53.8948V54.3948H173.335V53.8948H172.835ZM172.835 33.7439V33.2439H172.335V33.7439H172.835ZM179.518 33.7439H180.018V33.2439H179.518V33.7439ZM169.096 51.8948V52.3948H170.145L169.485 51.58L169.096 51.8948ZM161.902 43.0195L162.291 42.7047L161.989 42.332L161.604 42.6184L161.902 43.0195ZM127.666 37.3264L128.164 37.2812L128.123 36.8264H127.666V37.3264ZM54.8522 37.3264V36.8264H54.3955L54.3542 37.2812L54.8522 37.3264ZM20.6159 43.0195L20.9144 42.6184L20.5295 42.332L20.2275 42.7047L20.6159 43.0195ZM13.422 51.8948L13.0336 51.58L12.3731 52.3948H13.422V51.8948ZM170.835 50.8632L170.446 51.178L171.335 52.2741V50.8632H170.835ZM163.35 41.63L162.962 41.3151L162.707 41.6299L162.962 41.9449L163.35 41.63ZM170.835 33.8037H171.335V33.5885L171.178 33.4405L170.835 33.8037ZM163.989 27.3266L164.332 26.9635L163.627 26.2964L163.494 27.2577L163.989 27.3266ZM163.977 27.4135L163.482 27.3446L163.482 27.3446L163.977 27.4135ZM164.038 29.9923L164.529 29.9001L164.529 29.9001L164.038 29.9923ZM164.999 35.1161L165.491 35.0239L165.491 35.0239L164.999 35.1161ZM171.572 31.7439L171.228 32.1071L171.373 32.2439H171.572V31.7439ZM177.881 31.7439V32.2439H179.2L178.212 31.3696L177.881 31.7439ZM164.966 20.3062L165.298 19.9319L164.6 19.3136L164.471 20.2372L164.966 20.3062ZM164.328 24.8901L163.833 24.8211L163.797 25.0762L163.984 25.2532L164.328 24.8901ZM158.177 7.61925L158.099 7.12533L158.099 7.12533L158.177 7.61925ZM160.276 7.63922L160.185 8.13093L161.314 8.33911L160.698 7.37082L160.276 7.63922ZM155.786 8.16263L155.633 7.68649L155.633 7.68649L155.786 8.16263ZM151.927 9.99086L151.673 9.56045L151.673 9.56045L151.927 9.99086ZM141.299 10.119L141.052 10.5538L141.052 10.5538L141.299 10.119ZM136.969 8.16263L136.827 8.64187L136.827 8.64187L136.969 8.16263ZM134.927 7.70977L134.846 8.20322L134.846 8.20322L134.927 7.70977ZM127.338 15.6737L127.836 15.6261L127.836 15.6261L127.338 15.6737ZM128.5 27.8133L128.002 27.8609L128.002 27.8609L128.5 27.8133ZM128.471 29.5993L127.975 29.5353L127.975 29.5353L128.471 29.5993ZM127.732 35.3264V35.8264H128.171L128.228 35.3904L127.732 35.3264ZM92.297 35.3264H91.797V35.8264H92.297V35.3264ZM92.2626 12.0843L91.7647 12.039L91.7609 12.0804L91.764 12.1219L92.2626 12.0843ZM19.1677 41.63L19.5561 41.9448L19.8114 41.6299L19.5561 41.3151L19.1677 41.63ZM17.5191 35.1161L17.0277 35.0239L17.0277 35.0239L17.5191 35.1161ZM11.6837 50.8631L11.1837 50.8631L11.1837 52.274L12.0721 51.178L11.6837 50.8631ZM11.6837 33.8037L11.3401 33.4405L11.1837 33.5884L11.1837 33.8037L11.6837 33.8037ZM18.5293 27.3266L19.0246 27.2577L18.8907 26.2964L18.1857 26.9634L18.5293 27.3266ZM18.5415 27.4135L19.0367 27.3446L19.0367 27.3446L18.5415 27.4135ZM18.4806 29.9923L17.9892 29.9001L17.9892 29.9001L18.4806 29.9923ZM9.83343 53.8948H10.3334V53.3948H9.83343V53.8948ZM9.83343 67.2486L9.64196 67.7105L10.3334 67.9972V67.2486H9.83343ZM9.68371 53.8948H9.18371V54.3948H9.68371V53.8948ZM9.68371 52.8948L9.18371 52.8948V52.8948H9.68371ZM9.68371 33.7439L10.1837 33.7439L10.1837 33.2439H9.68371V33.7439ZM3 33.7439V33.2439H2.5V33.7439H3ZM3 59.9402L3.5 59.9402V59.9402H3ZM5.61095 64.7422L5.93441 64.3609L5.93441 64.3609L5.61095 64.7422ZM10.9461 31.7439V32.2439H11.1452L11.2898 32.1071L10.9461 31.7439ZM18.1901 24.89L18.5337 25.2532L18.7208 25.0762L18.6853 24.8211L18.1901 24.89ZM4.63738 31.7439L4.30588 31.3696L3.31869 32.2439H4.63738V31.7439ZM17.5519 20.3062L18.0471 20.2372L17.9185 19.3136L17.2204 19.9319L17.5519 20.3062ZM27.5372 69.5012H28.0372V69.0012H27.5372V69.5012ZM25.5372 69.5012V69.0012H25.0372V69.5012H25.5372ZM35.8799 69.5012H36.3799V69.0012H35.8799V69.5012ZM33.8799 69.5012V69.0012H33.3799V69.5012H33.8799ZM154.981 69.5012V69.0012H154.481V69.5012H154.981ZM156.981 69.5012H157.481V69.0012H156.981V69.5012ZM146.638 69.5012V69.0012H146.138V69.5012H146.638ZM148.638 69.5012H149.138V69.0012H148.638V69.5012ZM80.2971 2.5H30.6853V3.5H80.2971V2.5ZM90.7536 12.0391C90.268 6.6902 85.7722 2.5 80.2971 2.5V3.5C85.2502 3.5 89.3185 7.29103 89.7577 12.1295L90.7536 12.0391ZM90.7212 13C90.7212 12.7045 90.7324 12.4116 90.7543 12.1219L89.7571 12.0466C89.7333 12.3614 89.7212 12.6793 89.7212 13H90.7212ZM90.7212 35.3264V13H89.7212V35.3264H90.7212ZM54.7865 35.8264H90.2212V34.8264H54.7865V35.8264ZM53.5517 29.6632L54.2906 35.3904L55.2824 35.2624L54.5435 29.5353L53.5517 29.6632ZM53.5205 27.7656C53.46 28.3973 53.4705 29.0339 53.5517 29.6632L54.5435 29.5353C54.4718 28.9799 54.4626 28.4183 54.516 27.8609L53.5205 27.7656ZM54.6826 15.6261L53.5205 27.7656L54.516 27.8609L55.678 15.7214L54.6826 15.6261ZM47.6719 8.20322C51.7841 7.53083 55.0956 11.3111 54.6826 15.6261L55.678 15.7214C56.1371 10.9257 52.4307 6.41183 47.5105 7.21632L47.6719 8.20322ZM45.6916 8.64187C46.2911 8.46352 46.9628 8.31917 47.6719 8.20322L47.5105 7.21632C46.7726 7.33698 46.0575 7.4897 45.4065 7.68339L45.6916 8.64187ZM41.4665 10.5538C42.8701 9.75694 44.3545 9.03967 45.6916 8.64187L45.4065 7.68339C43.9644 8.11243 42.4045 8.87134 40.9728 9.68414L41.4665 10.5538ZM30.3368 10.4213C33.7256 12.4247 38.0367 12.5009 41.4665 10.5538L40.9728 9.68414C37.8609 11.4508 33.9323 11.3852 30.8457 9.56045L30.3368 10.4213ZM26.58 8.63877C27.7731 9.02122 29.0838 9.68053 30.3368 10.4213L30.8457 9.56045C29.5633 8.80233 28.1798 8.10145 26.8853 7.68649L26.58 8.63877ZM24.2638 8.11316C25.0977 8.2445 25.8866 8.41649 26.58 8.63877L26.8853 7.6865C26.1286 7.44395 25.2866 7.26193 24.4194 7.12533L24.2638 8.11316ZM22.3329 8.13091C22.9392 8.01907 23.586 8.00641 24.2638 8.11316L24.4194 7.12533C23.6316 7.00126 22.8708 7.01483 22.1515 7.1475L22.3329 8.13091ZM30.6853 2.5C26.9568 2.5 23.6827 4.44373 21.8203 7.3708L22.664 7.90761C24.3506 5.25685 27.313 3.5 30.6853 3.5V2.5ZM91.7157 7.90691C89.7663 3.5429 85.3876 0.5 80.2971 0.5V1.5C84.9789 1.5 89.0083 4.29779 90.8026 8.31476L91.7157 7.90691ZM102.221 0.5C97.1307 0.5 92.7519 3.5429 90.8026 7.90691L91.7157 8.31476C93.51 4.29779 97.5394 1.5 102.221 1.5V0.5ZM151.833 0.5H102.221V1.5H151.833V0.5ZM163.639 8.88212C161.937 4.00236 157.294 0.5 151.833 0.5V1.5C156.856 1.5 161.128 4.72081 162.694 9.21144L163.639 8.88212ZM166.084 15.9062C166.477 13.0822 165.422 10.3409 163.494 8.66901L162.839 9.42454C164.501 10.8659 165.442 13.2664 165.093 15.7683L166.084 15.9062ZM165.793 17.9968L166.084 15.9062L165.093 15.7683L164.802 17.8589L165.793 17.9968ZM181.513 31.621L165.629 17.5535L164.966 18.3021L180.85 32.3696L181.513 31.621ZM181.85 31.9195L181.513 31.621L180.85 32.3696L181.187 32.6681L181.85 31.9195ZM182.018 32.7439V32.2938H181.018V32.7439H182.018ZM182.018 59.9402V32.7439H181.018V59.9402H182.018ZM178.525 66.6486C180.295 65.1462 182.018 62.9187 182.018 59.9402H181.018C181.018 62.5005 179.541 64.4748 177.878 65.886L178.525 66.6486ZM173.641 69.5587C174.72 69.1115 176.745 68.1584 178.525 66.6486L177.878 65.886C176.212 67.2993 174.295 68.2052 173.258 68.6349L173.641 69.5587ZM171.499 69.9633C172.19 69.9633 172.927 69.8546 173.641 69.5587L173.258 68.6349C172.689 68.8706 172.087 68.9633 171.499 68.9633V69.9633ZM92.297 69.9633H171.499V68.9633H92.297V69.9633ZM90.2212 69.9633H92.297V68.9633H90.2212V69.9633ZM11.0197 69.9633H90.2212V68.9633H11.0197V69.9633ZM8.87757 69.5587C9.59155 69.8546 10.3284 69.9633 11.0197 69.9633V68.9633C10.4312 68.9633 9.82916 68.8706 9.26042 68.6349L8.87757 69.5587ZM3.99366 66.6486C5.77335 68.1584 7.79857 69.1115 8.87756 69.5587L9.26043 68.6349C8.22357 68.2052 6.3065 67.2993 4.64058 65.886L3.99366 66.6486ZM0.5 59.9402C0.499998 62.9187 2.22278 65.1462 3.99366 66.6486L4.64058 65.886C2.97713 64.4748 1.5 62.5005 1.5 59.9402L0.5 59.9402ZM0.5 32.7439V59.9402H1.5V32.7439H0.5ZM0.5 32.2938V32.7439H1.5V32.2938H0.5ZM1.00549 31.621L0.668495 31.9195L1.3315 32.6681L1.66849 32.3696L1.00549 31.621ZM16.8892 17.5535L1.00549 31.621L1.6685 32.3696L17.5522 18.3022L16.8892 17.5535ZM16.4344 15.9062L16.7255 17.9968L17.7159 17.8589L17.4248 15.7683L16.4344 15.9062ZM19.0242 8.66891C17.096 10.3407 16.0412 13.0822 16.4344 15.9062L17.4248 15.7683C17.0765 13.2663 18.017 10.8658 19.6793 9.42446L19.0242 8.66891ZM30.6853 0.5C25.2238 0.5 20.5816 4.00231 18.8797 8.88202L19.8239 9.21135C21.3901 4.72077 25.6622 1.5 30.6853 1.5V0.5ZM80.2971 0.5H30.6853V1.5H80.2971V0.5ZM92.297 66.9633H90.2212V67.9633H92.297V66.9633ZM171.499 66.9633H92.297V67.9633H171.499V66.9633ZM171.959 66.9308C171.815 66.9523 171.661 66.9633 171.499 66.9633V67.9633C171.706 67.9633 171.909 67.9494 172.106 67.92L171.959 66.9308ZM170.685 67.9254H172.033V66.9254H170.685V67.9254ZM170.185 53.8948V67.4254H171.185V53.8948H170.185ZM92.297 54.3948H170.685V53.3948H92.297V54.3948ZM90.2212 54.3948H92.297V53.3948H90.2212V54.3948ZM11.8334 54.3948H90.2212V53.3948H11.8334V54.3948ZM12.3334 67.4254V53.8948H11.3334V67.4254H12.3334ZM10.4855 67.9254H11.8334V66.9254H10.4855V67.9254ZM11.0197 66.9633C10.8573 66.9633 10.7036 66.9523 10.5591 66.9308L10.4119 67.92C10.6096 67.9494 10.8127 67.9633 11.0197 67.9633V66.9633ZM90.2212 66.9633H11.0197V67.9633H90.2212V66.9633ZM172.876 67.7105C173.871 67.2981 175.679 66.4396 177.231 65.1234L176.584 64.3609C175.146 65.5805 173.446 66.3917 172.493 66.7868L172.876 67.7105ZM172.185 53.8948V67.2486H173.185V53.8948H172.185ZM172.835 53.3948H172.685V54.3948H172.835V53.3948ZM172.335 52.8948V53.8948H173.335V52.8948H172.335ZM172.335 33.7439V52.8948H173.335V33.7439H172.335ZM179.518 33.2439H172.835V34.2439H179.518V33.2439ZM180.018 59.9402V33.7439H179.018V59.9402H180.018ZM177.231 65.1234C178.786 63.8039 180.018 62.0828 180.018 59.9402H179.018C179.018 61.6661 178.03 63.1339 176.584 64.3609L177.231 65.1234ZM92.297 51.3948H90.2212V52.3948H92.297V51.3948ZM169.096 51.3948H92.297V52.3948H169.096V51.3948ZM161.514 43.3344L168.708 52.2096L169.485 51.58L162.291 42.7047L161.514 43.3344ZM157.136 45.0917C159.05 45.0917 160.796 44.4658 162.201 43.4207L161.604 42.6184C160.365 43.5397 158.827 44.0917 157.136 44.0917V45.0917ZM135.635 45.0917H157.136V44.0917H135.635V45.0917ZM127.168 37.3715C127.555 41.6413 131.147 45.0917 135.635 45.0917V44.0917C131.677 44.0917 128.505 41.0482 128.164 37.2812L127.168 37.3715ZM92.297 37.8264H127.666V36.8264H92.297V37.8264ZM92.2212 37.8264H92.297V36.8264H92.2212V37.8264ZM90.297 37.8264H92.2212V36.8264H90.297V37.8264ZM90.2212 37.8264H90.297V36.8264H90.2212V37.8264ZM54.8522 37.8264H90.2212V36.8264H54.8522V37.8264ZM46.8835 45.0917C51.371 45.0917 54.9631 41.6413 55.3502 37.3715L54.3542 37.2812C54.0128 41.0482 50.8413 44.0917 46.8835 44.0917V45.0917ZM25.3818 45.0917H46.8835V44.0917H25.3818V45.0917ZM20.3175 43.4207C21.7222 44.4658 23.4686 45.0917 25.3818 45.0917V44.0917C23.6912 44.0917 22.1528 43.5397 20.9144 42.6184L20.3175 43.4207ZM13.8104 52.2096L21.0044 43.3343L20.2275 42.7047L13.0336 51.58L13.8104 52.2096ZM90.2212 51.3948H13.422V52.3948H90.2212V51.3948ZM171.223 50.5484L163.739 41.3152L162.962 41.9449L170.446 51.178L171.223 50.5484ZM170.335 33.8037V50.8632H171.335V33.8037H170.335ZM163.645 27.6898L170.491 34.1669L171.178 33.4405L164.332 26.9635L163.645 27.6898ZM164.472 27.4825L164.484 27.3956L163.494 27.2577L163.482 27.3446L164.472 27.4825ZM164.529 29.9001C164.379 29.1026 164.36 28.2862 164.472 27.4825L163.482 27.3446C163.355 28.2554 163.377 29.1808 163.546 30.0846L164.529 29.9001ZM165.491 35.0239L164.529 29.9001L163.546 30.0846L164.508 35.2083L165.491 35.0239ZM163.739 41.945C165.243 40.0906 165.975 37.6045 165.491 35.0239L164.508 35.2083C164.935 37.4859 164.291 39.677 162.962 41.3151L163.739 41.945ZM171.835 31.2439H171.572V32.2439H171.835V31.2439ZM177.881 31.2439H171.835V32.2439H177.881V31.2439ZM164.635 20.6805L177.549 32.1182L178.212 31.3696L165.298 19.9319L164.635 20.6805ZM164.823 24.959L165.462 20.3751L164.471 20.2372L163.833 24.8211L164.823 24.959ZM171.916 31.3807L164.672 24.5269L163.984 25.2532L171.228 32.1071L171.916 31.3807ZM158.254 8.11316C158.932 8.00641 159.579 8.01908 160.185 8.13093L160.367 7.14752C159.647 7.01483 158.887 7.00125 158.099 7.12533L158.254 8.11316ZM155.938 8.63877C156.632 8.41649 157.421 8.2445 158.254 8.11316L158.099 7.12533C157.232 7.26193 156.39 7.44395 155.633 7.68649L155.938 8.63877ZM152.181 10.4213C153.434 9.68053 154.745 9.02122 155.938 8.63877L155.633 7.68649C154.338 8.10145 152.955 8.80233 151.673 9.56045L152.181 10.4213ZM141.052 10.5538C144.482 12.5009 148.793 12.4247 152.181 10.4213L151.673 9.56045C148.586 11.3852 144.657 11.4508 141.545 9.68414L141.052 10.5538ZM136.827 8.64187C138.164 9.03967 139.648 9.75694 141.052 10.5538L141.545 9.68414C140.114 8.87134 138.554 8.11243 137.112 7.68339L136.827 8.64187ZM134.846 8.20322C135.555 8.31917 136.227 8.46352 136.827 8.64187L137.112 7.68339C136.461 7.4897 135.746 7.33698 135.008 7.21632L134.846 8.20322ZM127.836 15.6261C127.423 11.3111 130.734 7.53083 134.846 8.20322L135.008 7.21632C130.088 6.41183 126.381 10.9257 126.84 15.7214L127.836 15.6261ZM128.998 27.7656L127.836 15.6261L126.84 15.7214L128.002 27.8609L128.998 27.7656ZM128.966 29.6632C129.048 29.0339 129.058 28.3973 128.998 27.7656L128.002 27.8609C128.056 28.4183 128.046 28.9799 127.975 29.5353L128.966 29.6632ZM128.228 35.3904L128.966 29.6632L127.975 29.5353L127.236 35.2624L128.228 35.3904ZM92.297 35.8264H127.732V34.8264H92.297V35.8264ZM91.797 13V35.3264H92.797V13H91.797ZM91.764 12.1219C91.7859 12.4116 91.797 12.7045 91.797 13H92.797C92.797 12.6793 92.785 12.3614 92.7612 12.0466L91.764 12.1219ZM102.221 2.5C96.7461 2.5 92.2503 6.69019 91.7647 12.039L92.7606 12.1295C93.1998 7.29102 97.2681 3.5 102.221 3.5V2.5ZM151.833 2.5H102.221V3.5H151.833V2.5ZM160.698 7.37082C158.836 4.44374 155.561 2.5 151.833 2.5V3.5C155.205 3.5 158.168 5.25686 159.854 7.90763L160.698 7.37082ZM19.5561 41.3151C18.2277 39.677 17.5831 37.4859 18.0105 35.2083L17.0277 35.0239C16.5434 37.6045 17.2756 40.0906 18.7794 41.9449L19.5561 41.3151ZM12.0721 51.178L19.5561 41.9448L18.7793 41.3152L11.2953 50.5483L12.0721 51.178ZM11.1837 33.8037L11.1837 50.8631L12.1837 50.8631L12.1837 33.8037L11.1837 33.8037ZM18.1857 26.9634L11.3401 33.4405L12.0274 34.1669L18.873 27.6898L18.1857 26.9634ZM19.0367 27.3446L19.0246 27.2577L18.0341 27.3956L18.0462 27.4825L19.0367 27.3446ZM18.9721 30.0846C19.1417 29.1808 19.1635 28.2554 19.0367 27.3446L18.0462 27.4825C18.1581 28.2862 18.1389 29.1026 17.9892 29.9001L18.9721 30.0846ZM18.0105 35.2083L18.9721 30.0846L17.9892 29.9001L17.0277 35.0239L18.0105 35.2083ZM9.33343 53.8948V67.2486H10.3334V53.8948H9.33343ZM9.68371 54.3948H9.83343V53.3948H9.68371V54.3948ZM9.18371 52.8948V53.8948H10.1837V52.8948H9.18371ZM9.18371 33.7439L9.18371 52.8948L10.1837 52.8948L10.1837 33.7439L9.18371 33.7439ZM3 34.2439H9.68371V33.2439H3V34.2439ZM3.5 59.9402V33.7439H2.5V59.9402H3.5ZM5.93441 64.3609C4.48814 63.1339 3.5 61.6661 3.5 59.9402L2.5 59.9402C2.5 62.0828 3.7321 63.8039 5.28749 65.1234L5.93441 64.3609ZM10.0249 66.7868C9.07186 66.3917 7.37204 65.5805 5.93441 64.3609L5.28749 65.1234C6.83893 66.4396 8.64693 67.2981 9.64196 67.7105L10.0249 66.7868ZM11.2898 32.1071L18.5337 25.2532L17.8465 24.5268L10.6025 31.3807L11.2898 32.1071ZM10.6837 32.2439H10.9461V31.2439H10.6837V32.2439ZM4.63738 32.2439H10.6837V31.2439H4.63738V32.2439ZM17.2204 19.9319L4.30588 31.3696L4.96889 32.1182L17.8834 20.6805L17.2204 19.9319ZM18.6853 24.8211L18.0471 20.2372L17.0566 20.3751L17.6949 24.959L18.6853 24.8211ZM27.0372 69.5012V77.918H28.0372V69.5012H27.0372ZM25.5372 70.0012H27.5372V69.0012H25.5372V70.0012ZM26.0372 77.918V69.5012H25.0372V77.918H26.0372ZM29.5372 81.418C27.6042 81.418 26.0372 79.851 26.0372 77.918H25.0372C25.0372 80.4033 27.0519 82.418 29.5372 82.418V81.418ZM31.8799 81.418H29.5372V82.418H31.8799V81.418ZM35.3799 77.918C35.3799 79.851 33.8129 81.418 31.8799 81.418V82.418C34.3652 82.418 36.3799 80.4033 36.3799 77.918H35.3799ZM35.3799 69.5012V77.918H36.3799V69.5012H35.3799ZM33.8799 70.0012H35.8799V69.0012H33.8799V70.0012ZM34.3799 77.918V69.5012H33.3799V77.918H34.3799ZM31.8799 80.418C33.2606 80.418 34.3799 79.2988 34.3799 77.918H33.3799C33.3799 78.7465 32.7083 79.418 31.8799 79.418V80.418ZM29.5372 80.418H31.8799V79.418H29.5372V80.418ZM27.0372 77.918C27.0372 79.2988 28.1565 80.418 29.5372 80.418V79.418C28.7088 79.418 28.0372 78.7465 28.0372 77.918H27.0372ZM154.481 69.5012V77.918H155.481V69.5012H154.481ZM156.981 69.0012H154.981V70.0012H156.981V69.0012ZM157.481 77.918V69.5012H156.481V77.918H157.481ZM152.981 82.418C155.466 82.418 157.481 80.4033 157.481 77.918H156.481C156.481 79.851 154.914 81.418 152.981 81.418V82.418ZM150.638 82.418H152.981V81.418H150.638V82.418ZM146.138 77.918C146.138 80.4033 148.153 82.418 150.638 82.418V81.418C148.705 81.418 147.138 79.851 147.138 77.918H146.138ZM146.138 69.5012V77.918H147.138V69.5012H146.138ZM148.638 69.0012H146.638V70.0012H148.638V69.0012ZM149.138 77.918V69.5012H148.138V77.918H149.138ZM150.638 79.418C149.81 79.418 149.138 78.7465 149.138 77.918H148.138C148.138 79.2988 149.258 80.418 150.638 80.418V79.418ZM152.981 79.418H150.638V80.418H152.981V79.418ZM154.481 77.918C154.481 78.7465 153.809 79.418 152.981 79.418V80.418C154.362 80.418 155.481 79.2988 155.481 77.918H154.481Z" fill="#CCC2B5"/>
<path d="M35.0911 110.206C32.9471 110.206 31.2511 109.838 30.0031 109.102C28.7711 108.35 27.8831 107.446 27.3391 106.39L29.5231 104.734C30.5311 106.782 32.4191 107.806 35.1871 107.806C36.2911 107.806 37.2271 107.606 37.9951 107.206C38.7791 106.806 39.1711 106.166 39.1711 105.286C39.1711 104.63 38.9471 104.118 38.4991 103.75C38.0671 103.382 37.3951 103.054 36.4831 102.766C35.6511 102.51 35.1311 102.358 34.9231 102.31C33.5471 101.91 32.5551 101.598 31.9471 101.374C30.4111 100.798 29.3951 100.134 28.8991 99.382C28.4031 98.63 28.1551 97.846 28.1551 97.03C28.1551 96.358 28.3631 95.638 28.7791 94.87C29.2111 94.086 29.8831 93.422 30.7951 92.878C31.7231 92.318 32.8831 92.038 34.2751 92.038C35.8271 92.038 37.1231 92.246 38.1631 92.662C39.2031 93.078 40.2111 93.782 41.1871 94.774L38.7631 96.382C37.7871 95.118 36.3631 94.486 34.4911 94.486C33.5311 94.486 32.7871 94.63 32.2591 94.918C31.7471 95.206 31.4031 95.526 31.2271 95.878C31.0671 96.23 30.9871 96.542 30.9871 96.814C30.9871 97.39 31.2111 97.854 31.6591 98.206C32.1071 98.558 32.7711 98.878 33.6511 99.166C33.7311 99.198 34.3471 99.382 35.4991 99.718C36.2191 99.91 36.9631 100.126 37.7311 100.366C39.4111 100.926 40.5311 101.638 41.0911 102.502C41.6671 103.366 41.9551 104.198 41.9551 104.998C41.9551 105.862 41.7471 106.686 41.3311 107.47C40.9311 108.254 40.2191 108.91 39.1951 109.438C38.1871 109.95 36.8191 110.206 35.0911 110.206ZM56.7701 100.75C57.6501 101.022 58.3781 101.494 58.9541 102.166C59.5301 102.838 59.8181 103.71 59.8181 104.782C59.8181 108.206 57.8661 109.918 53.9621 109.918H44.3861V92.326H53.0741C55.0901 92.326 56.6341 92.67 57.7061 93.358C58.7941 94.03 59.3381 95.206 59.3381 96.886C59.3381 97.654 59.1301 98.422 58.7141 99.19C58.2981 99.942 57.6501 100.462 56.7701 100.75ZM53.0741 94.654C52.7381 94.638 50.7141 94.63 47.0021 94.63V99.646H53.0741C54.4661 99.646 55.3781 99.422 55.8101 98.974C56.2581 98.526 56.4821 97.918 56.4821 97.15C56.4821 96.446 56.3141 95.918 55.9781 95.566C55.6421 95.198 55.2421 94.966 54.7781 94.87C54.3141 94.758 53.7461 94.686 53.0741 94.654ZM52.6421 107.614C53.4901 107.614 54.2021 107.566 54.7781 107.47C55.3701 107.374 55.8741 107.118 56.2901 106.702C56.7221 106.286 56.9381 105.646 56.9381 104.782C56.9381 103.918 56.7301 103.278 56.3141 102.862C55.8981 102.446 55.4261 102.19 54.8981 102.094C54.3701 101.998 53.7621 101.95 53.0741 101.95H47.0021V107.614H52.6421ZM74.5128 92.326C77.3288 92.326 79.3128 93.19 80.4648 94.918C81.6168 96.646 82.1928 98.718 82.1928 101.134C82.1928 103.55 81.6168 105.622 80.4648 107.35C79.3128 109.062 77.3288 109.918 74.5128 109.918H66.6648V92.326H74.5128ZM73.7928 107.614C74.8328 107.614 75.7528 107.462 76.5528 107.158C77.3528 106.838 78.0168 106.206 78.5448 105.262C79.0888 104.302 79.3608 102.926 79.3608 101.134C79.3608 99.342 79.0888 97.966 78.5448 97.006C78.0168 96.046 77.3528 95.414 76.5528 95.11C75.7528 94.79 74.8328 94.63 73.7928 94.63H69.2808V107.614H73.7928ZM86.4886 104.278C86.6006 105.366 86.9446 106.262 87.5206 106.966C88.0966 107.67 88.9286 108.022 90.0166 108.022C90.8486 108.022 91.4966 107.854 91.9606 107.518C92.4246 107.182 92.8406 106.606 93.2086 105.79L95.6086 106.558C95.2086 107.63 94.5526 108.51 93.6406 109.198C92.7286 109.886 91.5206 110.23 90.0166 110.23C88.4646 110.23 87.2406 109.87 86.3446 109.15C85.4486 108.414 84.8246 107.55 84.4726 106.558C84.1366 105.55 83.9686 104.574 83.9686 103.63C83.9686 102.686 84.1366 101.718 84.4726 100.726C84.8246 99.718 85.4486 98.854 86.3446 98.134C87.2406 97.398 88.4646 97.03 90.0166 97.03C91.5686 97.03 92.7926 97.398 93.6886 98.134C94.6006 98.854 95.2246 99.718 95.5606 100.726C95.9126 101.718 96.0886 102.686 96.0886 103.63C96.0886 103.902 96.0806 104.118 96.0646 104.278H86.4886ZM90.0166 99.238C89.0566 99.238 88.2886 99.518 87.7126 100.078C87.1526 100.638 86.7846 101.366 86.6086 102.262H93.4486C93.2726 101.366 92.8966 100.638 92.3206 100.078C91.7606 99.518 90.9926 99.238 90.0166 99.238ZM102.802 110.206C101.346 110.206 100.138 109.934 99.1781 109.39C98.2181 108.846 97.5381 108.086 97.1381 107.11L99.4421 105.838C99.5541 106.382 99.9141 106.87 100.522 107.302C101.146 107.734 101.898 107.95 102.778 107.95C103.738 107.95 104.482 107.822 105.01 107.566C105.554 107.294 105.826 106.91 105.826 106.414C105.826 106.03 105.658 105.734 105.322 105.526C104.986 105.302 104.506 105.102 103.882 104.926C103.546 104.83 103.042 104.702 102.37 104.542C101.506 104.334 100.85 104.158 100.402 104.014C99.4741 103.71 98.7621 103.318 98.2661 102.838C97.7861 102.358 97.5461 101.694 97.5461 100.846C97.5461 100.062 97.7781 99.382 98.2421 98.806C98.7221 98.23 99.3461 97.798 100.114 97.51C100.882 97.206 101.714 97.054 102.61 97.054C103.778 97.054 104.842 97.302 105.802 97.798C106.778 98.278 107.45 99.022 107.818 100.03L105.562 101.134C105.338 100.494 104.954 100.014 104.41 99.694C103.866 99.374 103.218 99.214 102.466 99.214C101.794 99.214 101.218 99.35 100.738 99.622C100.258 99.878 100.018 100.254 100.018 100.75C100.018 101.022 100.13 101.254 100.354 101.446C100.594 101.638 101.026 101.822 101.65 101.998L102.97 102.334C103.754 102.494 104.442 102.67 105.034 102.862C106.106 103.198 106.93 103.614 107.506 104.11C108.098 104.606 108.394 105.302 108.394 106.198C108.394 106.87 108.194 107.51 107.794 108.118C107.41 108.726 106.794 109.23 105.946 109.63C105.114 110.014 104.066 110.206 102.802 110.206ZM111.759 94.846C111.327 94.846 110.959 94.694 110.655 94.39C110.351 94.086 110.199 93.718 110.199 93.286C110.199 92.854 110.351 92.486 110.655 92.182C110.959 91.878 111.327 91.726 111.759 91.726C112.191 91.726 112.559 91.878 112.863 92.182C113.167 92.486 113.319 92.854 113.319 93.286C113.319 93.718 113.167 94.086 112.863 94.39C112.559 94.694 112.191 94.846 111.759 94.846ZM113.031 109.918H110.463V97.342H113.031V109.918ZM127.128 97.582C126.456 97.582 125.912 97.862 125.496 98.422C126.328 99.174 126.744 100.19 126.744 101.47C126.744 102.606 126.44 103.502 125.832 104.158C125.24 104.814 124.536 105.27 123.72 105.526C122.904 105.782 122.112 105.91 121.344 105.91C120.688 105.91 120.072 105.838 119.496 105.694C119.128 105.822 118.832 105.982 118.608 106.174C118.384 106.35 118.272 106.526 118.272 106.702C118.272 106.83 118.32 106.942 118.416 107.038C118.544 107.182 118.832 107.294 119.28 107.374C119.744 107.438 120.392 107.51 121.224 107.59C122.792 107.718 123.936 107.862 124.656 108.022C125.776 108.262 126.656 108.67 127.296 109.246C127.936 109.822 128.256 110.67 128.256 111.79C128.256 113.006 127.712 113.942 126.624 114.598C125.536 115.27 123.976 115.606 121.944 115.606C119.816 115.606 118.208 115.334 117.12 114.79C116.032 114.262 115.488 113.39 115.488 112.174C115.488 110.942 116.192 109.974 117.6 109.27C117.008 109.062 116.584 108.798 116.328 108.478C116.088 108.158 115.968 107.782 115.968 107.35C115.968 106.918 116.136 106.51 116.472 106.126C116.824 105.726 117.296 105.366 117.888 105.046C116.576 104.278 115.92 103.086 115.92 101.47C115.92 100.334 116.216 99.438 116.808 98.782C117.416 98.126 118.128 97.67 118.944 97.414C119.776 97.158 120.576 97.03 121.344 97.03C122.16 97.03 122.944 97.158 123.696 97.414C124.544 96.038 125.656 95.35 127.032 95.35C127.512 95.35 128.016 95.446 128.544 95.638V98.038C128.4 97.91 128.192 97.806 127.92 97.726C127.664 97.63 127.4 97.582 127.128 97.582ZM121.344 103.918C122.16 103.918 122.848 103.718 123.408 103.318C123.984 102.918 124.272 102.302 124.272 101.47C124.272 100.638 123.984 100.022 123.408 99.622C122.848 99.206 122.16 98.998 121.344 98.998C120.528 98.998 119.84 99.206 119.28 99.622C118.72 100.022 118.44 100.638 118.44 101.47C118.44 102.302 118.72 102.918 119.28 103.318C119.84 103.718 120.528 103.918 121.344 103.918ZM122.352 109.942C122.24 109.926 121.992 109.902 121.608 109.87C121.24 109.838 120.76 109.798 120.168 109.75C119.336 109.894 118.744 110.158 118.392 110.542C118.056 110.926 117.888 111.326 117.888 111.742C117.888 112.046 118.032 112.334 118.32 112.606C118.624 112.894 119.08 113.126 119.688 113.302C120.312 113.494 121.072 113.59 121.968 113.59C123.136 113.59 124.048 113.414 124.704 113.062C125.36 112.726 125.688 112.262 125.688 111.67C125.688 111.11 125.416 110.71 124.872 110.47C124.328 110.23 123.488 110.054 122.352 109.942ZM136.498 97.03C137.698 97.03 138.81 97.382 139.834 98.086C140.858 98.774 141.37 100.046 141.37 101.902V109.918H138.802V102.31C138.754 101.398 138.498 100.678 138.034 100.15C137.586 99.622 137.002 99.358 136.282 99.358C135.77 99.358 135.258 99.502 134.746 99.79C134.25 100.062 133.826 100.486 133.474 101.062C133.122 101.622 132.914 102.326 132.85 103.174V109.918H130.282V97.342H132.85V98.998C133.282 98.39 133.842 97.91 134.53 97.558C135.218 97.206 135.874 97.03 136.498 97.03ZM149.024 110.206C147.568 110.206 146.36 109.934 145.4 109.39C144.44 108.846 143.76 108.086 143.36 107.11L145.664 105.838C145.776 106.382 146.136 106.87 146.744 107.302C147.368 107.734 148.12 107.95 149 107.95C149.96 107.95 150.704 107.822 151.232 107.566C151.776 107.294 152.048 106.91 152.048 106.414C152.048 106.03 151.88 105.734 151.544 105.526C151.208 105.302 150.728 105.102 150.104 104.926C149.768 104.83 149.264 104.702 148.592 104.542C147.728 104.334 147.072 104.158 146.624 104.014C145.696 103.71 144.984 103.318 144.488 102.838C144.008 102.358 143.768 101.694 143.768 100.846C143.768 100.062 144 99.382 144.464 98.806C144.944 98.23 145.568 97.798 146.336 97.51C147.104 97.206 147.936 97.054 148.832 97.054C150 97.054 151.064 97.302 152.024 97.798C153 98.278 153.672 99.022 154.04 100.03L151.784 101.134C151.56 100.494 151.176 100.014 150.632 99.694C150.088 99.374 149.44 99.214 148.688 99.214C148.016 99.214 147.44 99.35 146.96 99.622C146.48 99.878 146.24 100.254 146.24 100.75C146.24 101.022 146.352 101.254 146.576 101.446C146.816 101.638 147.248 101.822 147.872 101.998L149.192 102.334C149.976 102.494 150.664 102.67 151.256 102.862C152.328 103.198 153.152 103.614 153.728 104.11C154.32 104.606 154.616 105.302 154.616 106.198C154.616 106.87 154.416 107.51 154.016 108.118C153.632 108.726 153.016 109.23 152.168 109.63C151.336 110.014 150.288 110.206 149.024 110.206Z" fill="#CCC2B5"/>
</svg>
